<svg xmlns="http://www.w3.org/2000/svg" viewBox="0 0 1230.56 765.2"><defs><style>.cls-1,.cls-44{fill:#00a055;}.cls-2,.cls-41{fill:#ef8031;}.cls-3,.cls-38{fill:#9c298c;}.cls-4,.cls-43{fill:#91be4a;}.cls-40,.cls-5{fill:#eb2c3b;}.cls-37,.cls-6{fill:#333391;}.cls-42,.cls-7{fill:#fde92b;}.cls-39,.cls-8{fill:#e9187e;}.cls-36,.cls-9{fill:#00a8de;}.cls-10,.cls-19,.cls-20,.cls-21,.cls-22,.cls-23,.cls-24,.cls-25,.cls-26,.cls-27,.cls-28{fill:none;}.cls-10{stroke:#999;}.cls-10,.cls-19,.cls-20,.cls-21,.cls-22,.cls-23,.cls-24,.cls-25,.cls-26,.cls-27,.cls-28,.cls-36,.cls-37,.cls-38,.cls-39,.cls-40,.cls-41,.cls-42,.cls-43,.cls-44,.cls-45{stroke-miterlimit:10;}.cls-11{font-size:36px;}.cls-11,.cls-47,.cls-48{font-family:MyriadPro-Regular, Myriad Pro;}.cls-12{letter-spacing:-0.01em;}.cls-13{letter-spacing:0.01em;}.cls-14{letter-spacing:-0.08em;}.cls-15{letter-spacing:0em;}.cls-16{letter-spacing:-0.01em;}.cls-17{letter-spacing:0.02em;}.cls-18{letter-spacing:0em;}.cls-19{stroke:#3fa9f5;}.cls-20{stroke:#333391;}.cls-21{stroke:#9c298c;}.cls-22{stroke:#e9187e;}.cls-23{stroke:#eb2c3b;}.cls-24{stroke:#ef8031;}.cls-25{stroke:#fde92b;}.cls-26{stroke:#91be4a;}.cls-27{stroke:#00a055;}.cls-28,.cls-36,.cls-38,.cls-39,.cls-40,.cls-41,.cls-42,.cls-43,.cls-44,.cls-45{stroke:#000;}.cls-29{letter-spacing:-0.01em;}.cls-30{letter-spacing:-0.01em;}.cls-31{letter-spacing:0.02em;}.cls-32{letter-spacing:0em;}.cls-33{letter-spacing:0em;}.cls-34{letter-spacing:-0.01em;}.cls-35{letter-spacing:0em;}.cls-37{stroke:#231f20;}.cls-45,.cls-46,.cls-48{fill:#fff;}.cls-47,.cls-48{font-size:15.8px;}</style></defs><title>schema</title><g id="grille"><rect class="cls-1" x="115.17" y="355.17" width="57.33" height="57.33"/><rect class="cls-2" x="115.17" y="297.83" width="57.33" height="57.34"/><rect class="cls-3" x="115.17" y="240.5" width="57.33" height="57.33"/><rect class="cls-4" x="57.83" y="355.17" width="57.34" height="57.33"/><rect class="cls-5" x="57.83" y="297.83" width="57.34" height="57.34"/><rect class="cls-6" x="57.83" y="240.5" width="57.34" height="57.33"/><rect class="cls-7" x="0.5" y="355.17" width="57.33" height="57.33"/><rect class="cls-8" x="0.5" y="297.83" width="57.33" height="57.34"/><rect class="cls-9" x="0.5" y="240.5" width="57.33" height="57.33"/><polygon class="cls-10" points="0.5 297.83 0.5 240.5 57.83 240.5 115.17 240.5 172.5 240.5 172.5 297.83 172.5 355.17 172.5 412.5 115.17 412.5 57.83 412.5 0.5 412.5 0.5 355.17 0.5 297.83"/><polyline class="cls-10" points="0.5 355.17 57.83 355.17 115.17 355.17 172.5 355.17"/><polyline class="cls-10" points="0.5 297.83 57.83 297.83 115.17 297.83 172.5 297.83"/><polyline class="cls-10" points="115.17 240.5 115.17 297.83 115.17 355.17 115.17 412.5"/><polyline class="cls-10" points="57.83 240.5 57.83 297.83 57.83 355.17 57.83 412.5"/><text class="cls-11" transform="translate(18.48 281.83)">1</text><text class="cls-11" transform="translate(76.17 281.48)">2</text><text class="cls-11" transform="translate(135.78 281.48)">3</text><text class="cls-11" transform="translate(18.09 336.17)">4</text><text class="cls-11" transform="translate(76.35 338.09)">5</text><text class="cls-11" transform="translate(134.04 336.43)">6</text><text class="cls-11" transform="translate(21.3 393.78)">7</text><text class="cls-11" transform="translate(77.52 394.04)">8</text><text class="cls-11" transform="translate(133.96 394)">9</text></g><g id="textes"><text class="cls-11" transform="translate(206.17 713)"><tspan class="cls-12">c</tspan><tspan x="15.91" y="0">ouche</tspan><tspan class="cls-13" x="-6.41" y="43.2">d</tspan><tspan class="cls-14" x="14.11" y="43.2">’</tspan><tspan x="18.79" y="43.2">e</tspan><tspan class="cls-15" x="36.83" y="43.2">n</tspan><tspan x="56.66" y="43.2">t</tspan><tspan class="cls-16" x="68.58" y="43.2">r</tspan><tspan x="79.99" y="43.2">ée</tspan></text><text class="cls-11" transform="translate(508.17 713)"><tspan class="cls-12">c</tspan><tspan x="15.91" y="0">ouche</tspan><tspan x="2" y="43.2">cachée</tspan></text><text class="cls-11" transform="translate(796.17 713)"><tspan class="cls-12">c</tspan><tspan x="15.91" y="0">ouche</tspan><tspan x="-10.67" y="43.2">de so</tspan><tspan class="cls-17" x="69.32" y="43.2">r</tspan><tspan class="cls-18" x="81.95" y="43.2">tie</tspan></text></g><g id="liens"><line class="cls-19" x1="549" y1="180" x2="249" y2="31"/><line class="cls-20" x1="249.5" y1="104.5" x2="549.5" y2="180.5"/><line class="cls-21" x1="249.5" y1="177.5" x2="549.5" y2="180.5"/><line class="cls-22" x1="249.5" y1="250.5" x2="549.5" y2="180.5"/><line class="cls-23" x1="249.5" y1="323.5" x2="549.5" y2="180.5"/><line class="cls-24" x1="249.5" y1="399.5" x2="549.5" y2="180.5"/><line class="cls-25" x1="249.5" y1="469.5" x2="549.5" y2="179.5"/><line class="cls-26" x1="249.5" y1="542.5" x2="549.5" y2="180.5"/><line class="cls-27" x1="249.5" y1="615.5" x2="549.5" y2="180.5"/><line class="cls-19" x1="551.5" y1="323.5" x2="249.5" y2="31.5"/><line class="cls-20" x1="249.5" y1="104.5" x2="551.5" y2="323.5"/><line class="cls-21" x1="249.5" y1="177.5" x2="551.5" y2="323.5"/><line class="cls-22" x1="249.5" y1="250.5" x2="551.5" y2="323.5"/><line class="cls-23" x1="249.5" y1="323.5" x2="551.5" y2="323.5"/><line class="cls-24" x1="249.5" y1="399.5" x2="551.5" y2="323.5"/><line class="cls-25" x1="249.5" y1="469.5" x2="551.5" y2="323.5"/><line class="cls-26" x1="249.5" y1="542.5" x2="551.5" y2="323.5"/><line class="cls-27" x1="249.5" y1="615.5" x2="551.5" y2="323.5"/><line class="cls-27" x1="549.5" y1="472.5" x2="249.5" y2="615.5"/><line class="cls-26" x1="249.5" y1="542.5" x2="549.5" y2="472.5"/><line class="cls-25" x1="249.5" y1="469.5" x2="549.5" y2="472.5"/><line class="cls-24" x1="249.5" y1="396.5" x2="549.5" y2="472.5"/><line class="cls-23" x1="249.5" y1="323.5" x2="549.5" y2="472.5"/><line class="cls-22" x1="249.5" y1="250.5" x2="549.5" y2="472.5"/><line class="cls-21" x1="249.5" y1="177.5" x2="549.5" y2="472.5"/><line class="cls-20" x1="249.5" y1="104.5" x2="549.5" y2="472.5"/><line class="cls-19" x1="249.5" y1="31.5" x2="549.5" y2="472.5"/><line class="cls-28" x1="549.5" y1="179.5" x2="841.5" y2="236.5"/><line class="cls-28" x1="551.5" y1="323.5" x2="841.5" y2="236.5"/><line class="cls-28" x1="549.5" y1="472.5" x2="841.5" y2="236.5"/><line class="cls-28" x1="839.5" y1="417.5" x2="549.5" y2="180.5"/><line class="cls-28" x1="551.5" y1="323.5" x2="839.5" y2="417.5"/><line class="cls-28" x1="549.5" y1="472.5" x2="839.5" y2="417.5"/><text class="cls-11" transform="translate(978.77 249)">li<tspan class="cls-29" x="16.92" y="0">g</tspan><tspan x="36.83" y="0">ne </tspan><tspan class="cls-30" x="82.47" y="0">v</tspan><tspan x="99.43" y="0">e</tspan><tspan class="cls-31" x="117.47" y="0">r</tspan><tspan class="cls-32" x="130.1" y="0">ticale</tspan></text><text class="cls-11" transform="translate(977.44 432)">li<tspan class="cls-29" x="16.92" y="0">g</tspan><tspan x="36.83" y="0">ne ho</tspan><tspan class="cls-33" x="122.22" y="0">r</tspan><tspan x="134.13" y="0">i</tspan><tspan class="cls-34" x="142.56" y="0">z</tspan><tspan x="157.71" y="0">o</tspan><tspan class="cls-35" x="177.48" y="0">n</tspan><tspan x="197.31" y="0">tale</tspan></text></g><g id="neuronne_couche_1" data-name="neuronne couche 1"><circle class="cls-36" cx="249.5" cy="31.5" r="31"/><text class="cls-11" transform="translate(240.27 43.5)">1</text><circle class="cls-37" cx="249.5" cy="104.5" r="31"/><text class="cls-11" transform="translate(240.27 116.5)">2</text><circle class="cls-38" cx="249.5" cy="177.5" r="31"/><text class="cls-11" transform="translate(240.27 189.5)">3</text><circle class="cls-39" cx="249.5" cy="250.5" r="31"/><text class="cls-11" transform="translate(240.27 262.5)">4</text><circle class="cls-40" cx="249.5" cy="323.5" r="31"/><text class="cls-11" transform="translate(240.27 335.5)">5</text><circle class="cls-41" cx="249.5" cy="396.5" r="31"/><text class="cls-11" transform="translate(240.27 408.5)">6</text><circle class="cls-42" cx="249.5" cy="469.5" r="31"/><text class="cls-11" transform="translate(240.27 481.5)">7</text><circle class="cls-43" cx="249.5" cy="542.5" r="31"/><text class="cls-11" transform="translate(240.27 554.5)">8</text><circle class="cls-44" cx="249.5" cy="615.5" r="31"/><text class="cls-11" transform="translate(240.27 627.5)">9</text></g><g id="neuronne_couche_2" data-name="neuronne couche 2"><circle class="cls-45" cx="549.5" cy="180.5" r="31"/><circle class="cls-45" cx="551.5" cy="323.5" r="31"/><circle class="cls-45" cx="549.5" cy="472.5" r="31"/></g><g id="neuronne_couche_3" data-name="neuronne couche 3"><circle class="cls-45" cx="840.5" cy="234.5" r="31"/><circle class="cls-45" cx="840.5" cy="417.5" r="31"/><text class="cls-11" transform="translate(831.46 247.5)">V</text><text class="cls-11" transform="translate(827.76 430.5)">H</text><rect class="cls-46" x="943.84" y="248.83" width="25.17" height="25.17"/><rect class="cls-46" x="943.84" y="223.67" width="25.17" height="25.17"/><rect class="cls-46" x="943.84" y="198.5" width="25.17" height="25.17"/><rect x="918.67" y="248.83" width="25.17" height="25.17"/><rect x="918.67" y="223.67" width="25.17" height="25.17"/><rect x="918.67" y="198.5" width="25.17" height="25.17"/><rect class="cls-46" x="893.5" y="248.83" width="25.17" height="25.17"/><rect class="cls-46" x="893.5" y="223.67" width="25.17" height="25.17"/><rect class="cls-46" x="893.5" y="198.5" width="25.17" height="25.17"/><polygon class="cls-10" points="893.5 223.67 893.5 198.5 918.67 198.5 943.84 198.5 969 198.5 969 223.67 969 248.83 969 274 943.84 274 918.67 274 893.5 274 893.5 248.83 893.5 223.67"/><polyline class="cls-10" points="893.5 248.83 918.67 248.83 943.84 248.83 969 248.83"/><polyline class="cls-10" points="893.5 223.67 918.67 223.67 943.84 223.67 969 223.67"/><polyline class="cls-10" points="943.84 198.5 943.84 223.67 943.84 248.83 943.84 274"/><polyline class="cls-10" points="918.67 198.5 918.67 223.67 918.67 248.83 918.67 274"/><text class="cls-47" transform="translate(901.39 216.64)">1</text><text class="cls-48" transform="translate(926.72 216.49)">2</text><text class="cls-47" transform="translate(952.88 216.49)">3</text><text class="cls-47" transform="translate(901.22 240.5)">4</text><text class="cls-48" transform="translate(926.79 241.34)">5</text><text class="cls-47" transform="translate(952.12 240.61)">6</text><text class="cls-47" transform="translate(902.63 265.78)">7</text><text class="cls-48" transform="translate(927.31 265.9)">8</text><text class="cls-47" transform="translate(952.08 265.88)">9</text><rect class="cls-46" x="943.83" y="431.83" width="25.17" height="25.17"/><rect x="943.83" y="406.67" width="25.17" height="25.17"/><rect class="cls-46" x="943.83" y="381.5" width="25.17" height="25.17"/><rect class="cls-46" x="918.66" y="431.83" width="25.17" height="25.17"/><rect x="918.66" y="406.67" width="25.17" height="25.17"/><rect class="cls-46" x="918.66" y="381.5" width="25.17" height="25.17"/><rect class="cls-46" x="893.5" y="431.83" width="25.17" height="25.17"/><rect x="893.5" y="406.67" width="25.17" height="25.17"/><rect class="cls-46" x="893.5" y="381.5" width="25.17" height="25.17"/><polygon class="cls-10" points="893.5 406.67 893.5 381.5 918.66 381.5 943.83 381.5 969 381.5 969 406.67 969 431.83 969 457 943.83 457 918.66 457 893.5 457 893.5 431.83 893.5 406.67"/><polyline class="cls-10" points="893.5 431.83 918.66 431.83 943.83 431.83 969 431.83"/><polyline class="cls-10" points="893.5 406.67 918.66 406.67 943.83 406.67 969 406.67"/><polyline class="cls-10" points="943.83 381.5 943.83 406.67 943.83 431.83 943.83 457"/><polyline class="cls-10" points="918.66 381.5 918.66 406.67 918.66 431.83 918.66 457"/><text class="cls-47" transform="translate(901.39 399.64)">1</text><text class="cls-47" transform="translate(926.72 399.49)">2</text><text class="cls-47" transform="translate(952.88 399.49)">3</text><text class="cls-48" transform="translate(901.22 423.5)">4</text><text class="cls-48" transform="translate(926.79 424.34)">5</text><text class="cls-48" transform="translate(952.12 423.61)">6</text><text class="cls-47" transform="translate(902.63 448.78)">7</text><text class="cls-47" transform="translate(927.31 448.9)">8</text><text class="cls-47" transform="translate(952.08 448.88)">9</text></g></svg>