<?xml version="1.0" encoding="utf-8"?>
<!-- Generator: Adobe Illustrator 22.1.0, SVG Export Plug-In . SVG Version: 6.00 Build 0)  -->
<svg version="1.1" xmlns="http://www.w3.org/2000/svg" xmlns:xlink="http://www.w3.org/1999/xlink" x="0px" y="0px"
	 viewBox="0 0 1280 1024" style="enable-background:new 0 0 1280 1024;" xml:space="preserve">
<style type="text/css">
	.st0{fill:#00A055;}
	.st1{fill:#EF8031;}
	.st2{fill:#9C298C;}
	.st3{fill:#91BE4A;}
	.st4{fill:#EB2C3B;}
	.st5{fill:#333391;}
	.st6{fill:#FDE92B;}
	.st7{fill:#E9187E;}
	.st8{fill:#00A8DE;}
	.st9{fill:none;stroke:#999999;stroke-miterlimit:10;}
	.st10{font-family:'MyriadPro-Regular';}
	.st11{font-size:36px;}
	.st12{opacity:0.95;fill:none;stroke:#3FA9F5;stroke-width:5;stroke-miterlimit:10;}
	.st13{opacity:0.13;fill:none;stroke:#333391;stroke-width:5;stroke-miterlimit:10;}
	.st14{opacity:0.97;fill:none;stroke:#9C298C;stroke-width:5;stroke-miterlimit:10;}
	.st15{opacity:0.98;fill:none;stroke:#E9187E;stroke-width:5;stroke-miterlimit:10;}
	.st16{opacity:7.000000e-02;fill:none;stroke:#EB2C3B;stroke-width:5;stroke-miterlimit:10;}
	.st17{opacity:0.98;fill:none;stroke:#EF8031;stroke-width:5;stroke-miterlimit:10;}
	.st18{opacity:0.94;fill:none;stroke:#FDE92B;stroke-width:5;stroke-miterlimit:10;}
	.st19{opacity:0.11;fill:none;stroke:#91BE4A;stroke-width:5;stroke-miterlimit:10;}
	.st20{opacity:0.97;fill:none;stroke:#00A055;stroke-width:5;stroke-miterlimit:10;}
	.st21{opacity:0.96;fill:none;stroke:#3FA9F5;stroke-width:5;stroke-miterlimit:10;}
	.st22{opacity:0.99;fill:none;stroke:#333391;stroke-width:5;stroke-miterlimit:10;}
	.st23{opacity:0.1;fill:none;stroke:#E9187E;stroke-width:5;stroke-miterlimit:10;}
	.st24{opacity:0.12;fill:none;stroke:#EF8031;stroke-width:5;stroke-miterlimit:10;}
	.st25{opacity:0.97;fill:none;stroke:#FDE92B;stroke-width:5;stroke-miterlimit:10;}
	.st26{opacity:0.99;fill:none;stroke:#91BE4A;stroke-width:5;stroke-miterlimit:10;}
	.st27{opacity:0.99;fill:none;stroke:#00A055;stroke-width:5;stroke-miterlimit:10;}
	.st28{opacity:0.34;fill:none;stroke:#91BE4A;stroke-width:5;stroke-miterlimit:10;}
	.st29{opacity:0.4;fill:none;stroke:#FDE92B;stroke-width:5;stroke-miterlimit:10;}
	.st30{opacity:0.97;fill:none;stroke:#EF8031;stroke-width:5;stroke-miterlimit:10;}
	.st31{opacity:0.37;fill:none;stroke:#EB2C3B;stroke-width:5;stroke-miterlimit:10;}
	.st32{opacity:0.17;fill:none;stroke:#E9187E;stroke-width:5;stroke-miterlimit:10;}
	.st33{opacity:0.99;fill:none;stroke:#9C298C;stroke-width:5;stroke-miterlimit:10;}
	.st34{opacity:0.34;fill:none;stroke:#333391;stroke-width:5;stroke-miterlimit:10;}
	.st35{opacity:0.43;fill:none;stroke:#3FA9F5;stroke-width:5;stroke-miterlimit:10;}
	.st36{opacity:7.000000e-02;fill:none;stroke:#000000;stroke-width:5;stroke-miterlimit:10;}
	.st37{opacity:0.96;fill:none;stroke:#000000;stroke-width:5;stroke-miterlimit:10;}
	.st38{opacity:0.14;fill:none;stroke:#000000;stroke-width:5;stroke-miterlimit:10;}
	.st39{opacity:0.92;fill:none;stroke:#000000;stroke-width:5;stroke-miterlimit:10;}
	.st40{opacity:4.000000e-02;fill:none;stroke:#000000;stroke-width:5;stroke-miterlimit:10;}
	.st41{fill:none;stroke:#000000;stroke-width:5;stroke-miterlimit:10;}
	.st42{fill:#00A8DE;stroke:#000000;stroke-miterlimit:10;}
	.st43{fill:#333391;stroke:#231F20;stroke-miterlimit:10;}
	.st44{fill:#9C298C;stroke:#000000;stroke-miterlimit:10;}
	.st45{fill:#E9187E;stroke:#000000;stroke-miterlimit:10;}
	.st46{fill:#EB2C3B;stroke:#000000;stroke-miterlimit:10;}
	.st47{fill:#EF8031;stroke:#000000;stroke-miterlimit:10;}
	.st48{fill:#FDE92B;stroke:#000000;stroke-miterlimit:10;}
	.st49{fill:#91BE4A;stroke:#000000;stroke-miterlimit:10;}
	.st50{fill:#00A055;stroke:#000000;stroke-miterlimit:10;}
	.st51{fill:#FFFFFF;stroke:#000000;stroke-miterlimit:10;}
	.st52{fill:#FFFFFF;}
	.st53{font-size:15.8023px;}
</style>
<g id="grille">
	<g>
		<g id="XMLID_1_">
			<g>
				<rect x="134.2" y="405.2" class="st0" width="57.3" height="57.3"/>
				<rect x="134.2" y="347.8" class="st1" width="57.3" height="57.3"/>
				<rect x="134.2" y="290.5" class="st2" width="57.3" height="57.3"/>
				<rect x="76.8" y="405.2" class="st3" width="57.3" height="57.3"/>
				<rect x="76.8" y="347.8" class="st4" width="57.3" height="57.3"/>
				<rect x="76.8" y="290.5" class="st5" width="57.3" height="57.3"/>
				<rect x="19.5" y="405.2" class="st6" width="57.3" height="57.3"/>
				<rect x="19.5" y="347.8" class="st7" width="57.3" height="57.3"/>
				<rect x="19.5" y="290.5" class="st8" width="57.3" height="57.3"/>
			</g>
			<g>
				<polygon class="st9" points="19.5,347.8 19.5,290.5 76.8,290.5 134.2,290.5 191.5,290.5 191.5,347.8 191.5,405.2 191.5,462.5 
					134.2,462.5 76.8,462.5 19.5,462.5 19.5,405.2 				"/>
				<polyline class="st9" points="19.5,405.2 76.8,405.2 134.2,405.2 191.5,405.2 				"/>
				<polyline class="st9" points="19.5,347.8 76.8,347.8 134.2,347.8 191.5,347.8 				"/>
				<polyline class="st9" points="134.2,290.5 134.2,347.8 134.2,405.2 134.2,462.5 				"/>
				<polyline class="st9" points="76.8,290.5 76.8,347.8 76.8,405.2 76.8,462.5 				"/>
			</g>
		</g>
	</g>
	<text transform="matrix(1 0 0 1 37.478 331.8262)" class="st10 st11">1</text>
	<text transform="matrix(1 0 0 1 95.1738 331.478)" class="st10 st11">2</text>
	<text transform="matrix(1 0 0 1 154.7827 331.478)" class="st10 st11">3</text>
	<text transform="matrix(1 0 0 1 37.0869 386.1738)" class="st10 st11">4</text>
	<text transform="matrix(1 0 0 1 95.3477 388.0869)" class="st10 st11">5</text>
	<text transform="matrix(1 0 0 1 153.0435 386.4346)" class="st10 st11">6</text>
	<text transform="matrix(1 0 0 1 40.3042 443.7822)" class="st10 st11">7</text>
	<text transform="matrix(1 0 0 1 96.522 444.0439)" class="st10 st11">8</text>
	<text transform="matrix(1 0 0 1 152.9565 444)" class="st10 st11">9</text>
</g>
<g id="textes">
	<text transform="matrix(1 0 0 1 225.0645 763)"><tspan x="0" y="0" class="st10 st11">couche</tspan><tspan x="-7.8" y="43.2" class="st10 st11">d’entrée</tspan></text>
	<text transform="matrix(1 0 0 1 527.0645 763)"><tspan x="0" y="0" class="st10 st11">couche</tspan><tspan x="2.1" y="43.2" class="st10 st11">cachée</tspan></text>
	<text transform="matrix(1 0 0 1 815.0645 763)"><tspan x="0" y="0" class="st10 st11">couche</tspan><tspan x="-10.1" y="43.2" class="st10 st11">de sortie</tspan></text>
</g>
<g id="liens">
	<line class="st12" x1="568" y1="230" x2="268" y2="81"/>
	<line class="st13" x1="268.5" y1="154.5" x2="568.5" y2="230.5"/>
	<line class="st14" x1="268.5" y1="227.5" x2="568.5" y2="230.5"/>
	<line class="st15" x1="268.5" y1="300.5" x2="568.5" y2="230.5"/>
	<line class="st16" x1="268.5" y1="373.5" x2="568.5" y2="230.5"/>
	<line class="st17" x1="268.5" y1="449.5" x2="568.5" y2="230.5"/>
	<line class="st18" x1="268.5" y1="519.5" x2="568.5" y2="229.5"/>
	<line class="st19" x1="268.5" y1="592.5" x2="568.5" y2="230.5"/>
	<line class="st20" x1="268.5" y1="665.5" x2="568.5" y2="230.5"/>
	<line class="st21" x1="570.5" y1="373.5" x2="268.5" y2="81.5"/>
	<line class="st22" x1="268.5" y1="154.5" x2="570.5" y2="373.5"/>
	<line class="st14" x1="268.5" y1="227.5" x2="570.5" y2="373.5"/>
	<line class="st23" x1="268.5" y1="300.5" x2="570.5" y2="373.5"/>
	<line class="st16" x1="268.5" y1="373.5" x2="570.5" y2="373.5"/>
	<line class="st24" x1="268.5" y1="449.5" x2="570.5" y2="373.5"/>
	<line class="st25" x1="268.5" y1="519.5" x2="570.5" y2="373.5"/>
	<line class="st26" x1="268.5" y1="592.5" x2="570.5" y2="373.5"/>
	<line class="st20" x1="268.5" y1="665.5" x2="570.5" y2="373.5"/>
	<line class="st27" x1="568.5" y1="522.5" x2="268.5" y2="665.5"/>
	<line class="st28" x1="268.5" y1="592.5" x2="568.5" y2="522.5"/>
	<line class="st29" x1="268.5" y1="519.5" x2="568.5" y2="522.5"/>
	<line class="st30" x1="268.5" y1="446.5" x2="568.5" y2="522.5"/>
	<line class="st31" x1="268.5" y1="373.5" x2="568.5" y2="522.5"/>
	<line class="st32" x1="268.5" y1="300.5" x2="568.5" y2="522.5"/>
	<line class="st33" x1="268.5" y1="227.5" x2="568.5" y2="522.5"/>
	<line class="st34" x1="268.5" y1="154.5" x2="568.5" y2="522.5"/>
	<line class="st35" x1="268.5" y1="81.5" x2="568.5" y2="522.5"/>
	<line class="st36" x1="568.5" y1="229.5" x2="860.5" y2="286.5"/>
	<line class="st37" x1="570.5" y1="373.5" x2="860.5" y2="286.5"/>
	<line class="st38" x1="568.5" y1="522.5" x2="860.5" y2="286.5"/>
	<line class="st39" x1="858.5" y1="467.5" x2="568.5" y2="230.5"/>
	<line class="st40" x1="570.5" y1="373.5" x2="858.5" y2="467.5"/>
	<line class="st41" x1="568.5" y1="522.5" x2="858.5" y2="467.5"/>
	<text transform="matrix(1 0 0 1 997.918 299)" class="st10 st11">ligne verticale</text>
	<text transform="matrix(1 0 0 1 996.21 482)" class="st10 st11">ligne horizontale</text>
</g>
<g id="neuronne_couche_1">
	<circle class="st42" cx="268.5" cy="81.5" r="31"/>
	<text transform="matrix(1 0 0 1 259.2661 93.5)" class="st10 st11">1</text>
	<circle class="st43" cx="268.5" cy="154.5" r="31"/>
	<text transform="matrix(1 0 0 1 259.2661 166.5)" class="st10 st11">2</text>
	<circle class="st44" cx="268.5" cy="227.5" r="31"/>
	<text transform="matrix(1 0 0 1 259.2661 239.5)" class="st10 st11">3</text>
	<circle class="st45" cx="268.5" cy="300.5" r="31"/>
	<text transform="matrix(1 0 0 1 259.2661 312.5)" class="st10 st11">4</text>
	<circle class="st46" cx="268.5" cy="373.5" r="31"/>
	<text transform="matrix(1 0 0 1 259.2661 385.5)" class="st10 st11">5</text>
	<circle class="st47" cx="268.5" cy="446.5" r="31"/>
	<text transform="matrix(1 0 0 1 259.2661 458.5)" class="st10 st11">6</text>
	<circle class="st48" cx="268.5" cy="519.5" r="31"/>
	<text transform="matrix(1 0 0 1 259.2661 531.5)" class="st10 st11">7</text>
	<circle class="st49" cx="268.5" cy="592.5" r="31"/>
	<text transform="matrix(1 0 0 1 259.2661 604.5)" class="st10 st11">8</text>
	<circle class="st50" cx="268.5" cy="665.5" r="31"/>
	<text transform="matrix(1 0 0 1 259.2661 677.5)" class="st10 st11">9</text>
</g>
<g id="neuronne_couche_2">
	<circle class="st51" cx="568.5" cy="230.5" r="31"/>
	<circle class="st51" cx="570.5" cy="373.5" r="31"/>
	<circle class="st51" cx="568.5" cy="522.5" r="31"/>
</g>
<g id="neuronne_couche_3">
	<circle class="st51" cx="859.5" cy="284.5" r="31"/>
	<circle class="st51" cx="859.5" cy="467.5" r="31"/>
	<text transform="matrix(1 0 0 1 850.4561 297.5)" class="st10 st11">V</text>
	<text transform="matrix(1 0 0 1 846.7637 480.5)" class="st10 st11">H</text>
	<g>
		<g id="XMLID_5_">
			<g>
				<rect x="962.8" y="298.8" class="st52" width="25.2" height="25.2"/>
				<rect x="962.8" y="273.7" class="st52" width="25.2" height="25.2"/>
				<rect x="962.8" y="248.5" class="st52" width="25.2" height="25.2"/>
				<rect x="937.7" y="298.8" width="25.2" height="25.2"/>
				<rect x="937.7" y="273.7" width="25.2" height="25.2"/>
				<rect x="937.7" y="248.5" width="25.2" height="25.2"/>
				<rect x="912.5" y="298.8" class="st52" width="25.2" height="25.2"/>
				<rect x="912.5" y="273.7" class="st52" width="25.2" height="25.2"/>
				<rect x="912.5" y="248.5" class="st52" width="25.2" height="25.2"/>
			</g>
			<g>
				<polygon class="st9" points="912.5,273.7 912.5,248.5 937.7,248.5 962.8,248.5 988,248.5 988,273.7 988,298.8 988,324 
					962.8,324 937.7,324 912.5,324 912.5,298.8 				"/>
				<polyline class="st9" points="912.5,298.8 937.7,298.8 962.8,298.8 988,298.8 				"/>
				<polyline class="st9" points="912.5,273.7 937.7,273.7 962.8,273.7 988,273.7 				"/>
				<polyline class="st9" points="962.8,248.5 962.8,273.7 962.8,298.8 962.8,324 				"/>
				<polyline class="st9" points="937.7,248.5 937.7,273.7 937.7,298.8 937.7,324 				"/>
			</g>
		</g>
	</g>
	<text transform="matrix(1 0 0 1 920.3916 266.6406)" class="st10 st53">1</text>
	<text transform="matrix(1 0 0 1 945.7168 266.4873)" class="st52 st10 st53">2</text>
	<text transform="matrix(1 0 0 1 971.8828 266.4873)" class="st10 st53">3</text>
	<text transform="matrix(1 0 0 1 920.2197 290.4961)" class="st10 st53">4</text>
	<text transform="matrix(1 0 0 1 945.7939 291.3359)" class="st52 st10 st53">5</text>
	<text transform="matrix(1 0 0 1 971.1191 290.6108)" class="st10 st53">6</text>
	<text transform="matrix(1 0 0 1 921.6328 315.7837)" class="st10 st53">7</text>
	<text transform="matrix(1 0 0 1 946.3086 315.8984)" class="st52 st10 st53">8</text>
	<text transform="matrix(1 0 0 1 971.0811 315.8794)" class="st10 st53">9</text>
	<g>
		<g id="XMLID_4_">
			<g>
				<rect x="962.8" y="481.8" class="st52" width="25.2" height="25.2"/>
				<rect x="962.8" y="456.7" width="25.2" height="25.2"/>
				<rect x="962.8" y="431.5" class="st52" width="25.2" height="25.2"/>
				<rect x="937.7" y="481.8" class="st52" width="25.2" height="25.2"/>
				<rect x="937.7" y="456.7" width="25.2" height="25.2"/>
				<rect x="937.7" y="431.5" class="st52" width="25.2" height="25.2"/>
				<rect x="912.5" y="481.8" class="st52" width="25.2" height="25.2"/>
				<rect x="912.5" y="456.7" width="25.2" height="25.2"/>
				<rect x="912.5" y="431.5" class="st52" width="25.2" height="25.2"/>
			</g>
			<g>
				<polygon class="st9" points="912.5,456.7 912.5,431.5 937.7,431.5 962.8,431.5 988,431.5 988,456.7 988,481.8 988,507 
					962.8,507 937.7,507 912.5,507 912.5,481.8 				"/>
				<polyline class="st9" points="912.5,481.8 937.7,481.8 962.8,481.8 988,481.8 				"/>
				<polyline class="st9" points="912.5,456.7 937.7,456.7 962.8,456.7 988,456.7 				"/>
				<polyline class="st9" points="962.8,431.5 962.8,456.7 962.8,481.8 962.8,507 				"/>
				<polyline class="st9" points="937.7,431.5 937.7,456.7 937.7,481.8 937.7,507 				"/>
			</g>
		</g>
	</g>
	<text transform="matrix(1 0 0 1 920.3916 449.6406)" class="st10 st53">1</text>
	<text transform="matrix(1 0 0 1 945.7168 449.4873)" class="st10 st53">2</text>
	<text transform="matrix(1 0 0 1 971.8828 449.4873)" class="st10 st53">3</text>
	<text transform="matrix(1 0 0 1 920.2197 473.4961)" class="st52 st10 st53">4</text>
	<text transform="matrix(1 0 0 1 945.7939 474.3359)" class="st52 st10 st53">5</text>
	<text transform="matrix(1 0 0 1 971.1191 473.6108)" class="st52 st10 st53">6</text>
	<text transform="matrix(1 0 0 1 921.6328 498.7837)" class="st10 st53">7</text>
	<text transform="matrix(1 0 0 1 946.3086 498.8984)" class="st10 st53">8</text>
	<text transform="matrix(1 0 0 1 971.0811 498.8794)" class="st10 st53">9</text>
</g>
<g id="Layer_7">
</g>
</svg>
