<svg version="1.1" xmlns="http://www.w3.org/2000/svg" xmlns:xlink="http://www.w3.org/1999/xlink" width="531.4164428710938" height="355" viewBox="4 13 531.4164428710938 355"><rect width="100%" height="100%" fill="white"></rect><g xmlns="http://www.w3.org/2000/svg" class="blocklyBlockCanvas"><style>.blocklySvg {background-color: #fff;outline: none;overflow: hidden;position: absolute;display: block;}.blocklyWidgetDiv {display: none;position: absolute;z-index: 99999;}.injectionDiv {height: 100%;position: relative;overflow: hidden;touch-action: none}.blocklyNonSelectable {user-select: none;-moz-user-select: none;-ms-user-select: none;-webkit-user-select: none;}.blocklyWsDragSurface {display: none;position: absolute;top: 0;left: 0;}.blocklyWsDragSurface.blocklyOverflowVisible {overflow: visible;}.blocklyBlockDragSurface {display: none;position: absolute;top: 0;left: 0;right: 0;bottom: 0;overflow: visible !important;z-index: 50;}.blocklyBlockCanvas.blocklyCanvasTransitioning,.blocklyBubbleCanvas.blocklyCanvasTransitioning {transition: transform .5s;}.blocklyTooltipDiv {background-color: #ffffc7;border: 1px solid #ddc;box-shadow: 4px 4px 20px 1px rgba(0,0,0,.15);color: #000;display: none;font-family: sans-serif;font-size: 9pt;opacity: .9;padding: 2px;position: absolute;z-index: 100000;}.blocklyResizeSE {cursor: se-resize;fill: #aaa;}.blocklyResizeSW {cursor: sw-resize;fill: #aaa;}.blocklyResizeLine {stroke: #515A5A;stroke-width: 1;}.blocklyHighlightedConnectionPath {fill: none;stroke: #fc3;stroke-width: 4px;}.blocklyPathLight {fill: none;stroke-linecap: round;stroke-width: 1;}.blocklySelected&gt;.blocklyPath {stroke: #fc3;stroke-width: 3px;}.blocklySelected&gt;.blocklyPathLight {display: none;}.blocklyDraggable {cursor: url("&lt;&lt;&lt;PATH&gt;&gt;&gt;/handopen.cur"), auto;cursor: grab;cursor: -webkit-grab;}.blocklyDragging {cursor: url("&lt;&lt;&lt;PATH&gt;&gt;&gt;/handclosed.cur"), auto;cursor: grabbing;cursor: -webkit-grabbing;}.blocklyDraggable:active {cursor: url("&lt;&lt;&lt;PATH&gt;&gt;&gt;/handclosed.cur"), auto;cursor: grabbing;cursor: -webkit-grabbing;}.blocklyBlockDragSurface .blocklyDraggable {cursor: url("&lt;&lt;&lt;PATH&gt;&gt;&gt;/handclosed.cur"), auto;cursor: grabbing;cursor: -webkit-grabbing;}.blocklyDragging.blocklyDraggingDelete {cursor: url("&lt;&lt;&lt;PATH&gt;&gt;&gt;/handdelete.cur"), auto;}.blocklyToolboxDelete {cursor: url("&lt;&lt;&lt;PATH&gt;&gt;&gt;/handdelete.cur"), auto;}.blocklyToolboxGrab {cursor: url("&lt;&lt;&lt;PATH&gt;&gt;&gt;/handclosed.cur"), auto;cursor: grabbing;cursor: -webkit-grabbing;}.blocklyDragging&gt;.blocklyPath,.blocklyDragging&gt;.blocklyPathLight {fill-opacity: .8;stroke-opacity: .8;}.blocklyDragging&gt;.blocklyPathDark {display: none;}.blocklyDisabled&gt;.blocklyPath {fill-opacity: .5;stroke-opacity: .5;}.blocklyDisabled&gt;.blocklyPathLight,.blocklyDisabled&gt;.blocklyPathDark {display: none;}.blocklyText {cursor: default;fill: #fff;font-family: sans-serif;font-size: 11pt;}.blocklyNonEditableText&gt;text {pointer-events: none;}.blocklyNonEditableText&gt;rect,.blocklyEditableText&gt;rect {fill: #fff;fill-opacity: .6;}.blocklyNonEditableText&gt;text,.blocklyEditableText&gt;text {fill: #000;}.blocklyEditableText:hover&gt;rect {stroke: #fff;stroke-width: 2;}.blocklyBubbleText {fill: #000;}.blocklyFlyout {position: absolute;z-index: 20;}.blocklyFlyoutButton {fill: #888;cursor: default;}.blocklyFlyoutButtonShadow {fill: #666;}.blocklyFlyoutButton:hover {fill: #aaa;}.blocklyFlyoutLabel {cursor: default;}.blocklyFlyoutLabelBackground {opacity: 0;}.blocklyFlyoutLabelText {fill: #000;}.blocklySvg text, .blocklyBlockDragSurface text {user-select: none;-moz-user-select: none;-ms-user-select: none;-webkit-user-select: none;cursor: inherit;}.blocklyHidden {display: none;}.blocklyFieldDropdown:not(.blocklyHidden) {display: block;}.blocklyIconGroup {cursor: default;}.blocklyIconGroup:not(:hover),.blocklyIconGroupReadonly {opacity: .6;}.blocklyIconShape {fill: #00f;stroke: #fff;stroke-width: 1px;}.blocklyIconSymbol {fill: #fff;}.blocklyMinimalBody {margin: 0;padding: 0;}.blocklyCommentForeignObject {position: relative;z-index: 0;}.blocklyCommentRect {fill: #E7DE8E;stroke: #bcA903;stroke-width: 1px}.blocklyCommentTarget {fill: transparent;stroke: #bcA903;}.blocklyCommentTargetFocused {fill: none;}.blocklyCommentHandleTarget {fill: none;}.blocklyCommentHandleTargetFocused {fill: transparent;}.blocklyFocused&gt;.blocklyCommentRect {fill: #B9B272;stroke: #B9B272;}.blocklySelected&gt;.blocklyCommentTarget {stroke: #fc3;stroke-width: 3px;}.blocklyCommentTextarea {background-color: #fef49c;border: 0;outline: 0;margin: 0;padding: 3px;resize: none;display: block;overflow: hidden;}.blocklyCommentDeleteIcon {cursor: pointer;fill: #000;display: none}.blocklySelected &gt; .blocklyCommentDeleteIcon {display: block}.blocklyDeleteIconShape {fill: #000;stroke: #000;stroke-width: 1px;}.blocklyDeleteIconShape.blocklyDeleteIconHighlighted {stroke: #fc3;}.blocklyHtmlInput {border: none;border-radius: 4px;font-family: sans-serif;height: 100%;margin: 0;outline: none;padding: 0 1px;width: 100%}.blocklyMainBackground {stroke-width: 1;stroke: #c6c6c6;}.blocklyMutatorBackground {fill: #fff;stroke: #ddd;stroke-width: 1;}.blocklyFlyoutBackground {fill: #ddd;fill-opacity: .8;}.blocklyTransparentBackground {opacity: 0;}.blocklyMainWorkspaceScrollbar {z-index: 20;}.blocklyFlyoutScrollbar {z-index: 30;}.blocklyScrollbarHorizontal, .blocklyScrollbarVertical {position: absolute;outline: none;}.blocklyScrollbarBackground {opacity: 0;}.blocklyScrollbarHandle {fill: #ccc;}.blocklyScrollbarBackground:hover+.blocklyScrollbarHandle,.blocklyScrollbarHandle:hover {fill: #bbb;}.blocklyZoom&gt;image {opacity: .4;}.blocklyZoom&gt;image:hover {opacity: .6;}.blocklyZoom&gt;image:active {opacity: .8;}.blocklyFlyout .blocklyScrollbarHandle {fill: #bbb;}.blocklyFlyout .blocklyScrollbarBackground:hover+.blocklyScrollbarHandle,.blocklyFlyout .blocklyScrollbarHandle:hover {fill: #aaa;}.blocklyInvalidInput {background: #faa;}.blocklyAngleCircle {stroke: #444;stroke-width: 1;fill: #ddd;fill-opacity: .8;}.blocklyAngleMarks {stroke: #444;stroke-width: 1;}.blocklyAngleGauge {fill: #f88;fill-opacity: .8;}.blocklyAngleLine {stroke: #f00;stroke-width: 2;stroke-linecap: round;pointer-events: none;}.blocklyContextMenu {border-radius: 4px;}.blocklyDropdownMenu {padding: 0 !important;}.blocklyWidgetDiv .goog-option-selected .goog-menuitem-checkbox,.blocklyWidgetDiv .goog-option-selected .goog-menuitem-icon {background: url(&lt;&lt;&lt;PATH&gt;&gt;&gt;/sprites.png) no-repeat -48px -16px !important;}.blocklyToolboxDiv {background-color: #ddd;overflow-x: visible;overflow-y: auto;position: absolute;user-select: none;-moz-user-select: none;-ms-user-select: none;-webkit-user-select: none;z-index: 70;-webkit-tap-highlight-color: transparent;}.blocklyTreeRoot {padding: 4px 0;}.blocklyTreeRoot:focus {outline: none;}.blocklyTreeRow {height: 22px;line-height: 22px;margin-bottom: 3px;padding-right: 8px;white-space: nowrap;}.blocklyHorizontalTree {float: left;margin: 1px 5px 8px 0;}.blocklyHorizontalTreeRtl {float: right;margin: 1px 0 8px 5px;}.blocklyToolboxDiv[dir="RTL"] .blocklyTreeRow {margin-left: 8px;}.blocklyTreeRow:not(.blocklyTreeSelected):hover {background-color: #e4e4e4;}.blocklyTreeSeparator {border-bottom: solid #e5e5e5 1px;height: 0;margin: 5px 0;}.blocklyTreeSeparatorHorizontal {border-right: solid #e5e5e5 1px;width: 0;padding: 5px 0;margin: 0 5px;}.blocklyTreeIcon {background-image: url(&lt;&lt;&lt;PATH&gt;&gt;&gt;/sprites.png);height: 16px;vertical-align: middle;width: 16px;}.blocklyTreeIconClosedLtr {background-position: -32px -1px;}.blocklyTreeIconClosedRtl {background-position: 0 -1px;}.blocklyTreeIconOpen {background-position: -16px -1px;}.blocklyTreeSelected&gt;.blocklyTreeIconClosedLtr {background-position: -32px -17px;}.blocklyTreeSelected&gt;.blocklyTreeIconClosedRtl {background-position: 0 -17px;}.blocklyTreeSelected&gt;.blocklyTreeIconOpen {background-position: -16px -17px;}.blocklyTreeIconNone,.blocklyTreeSelected&gt;.blocklyTreeIconNone {background-position: -48px -1px;}.blocklyTreeLabel {cursor: default;font-family: sans-serif;font-size: 16px;padding: 0 3px;vertical-align: middle;}.blocklyToolboxDelete .blocklyTreeLabel {cursor: url("&lt;&lt;&lt;PATH&gt;&gt;&gt;/handdelete.cur"), auto;}.blocklyTreeSelected .blocklyTreeLabel {color: #fff;}.blocklyColourTable {border-collapse: collapse;}.blocklyColourTable&gt;tr&gt;td {border: 1px solid #666;padding: 0;}.blocklyColourTable&gt;tr&gt;td&gt;div {border: 1px solid #666;height: 13px;width: 15px;}.blocklyColourTable&gt;tr&gt;td&gt;div:hover {border: 1px solid #fff;}.blocklyColourSelected, .blocklyColourSelected:hover {border: 1px solid #000 !important;}.blocklyWidgetDiv .goog-menu {background: #fff;border-color: #ccc #666 #666 #ccc;border-style: solid;border-width: 1px;cursor: default;font: normal 13px Arial, sans-serif;margin: 0;outline: none;padding: 4px 0;position: absolute;overflow-y: auto;overflow-x: hidden;max-height: 100%;z-index: 20000;}.blocklyWidgetDiv .goog-menuitem {color: #000;font: normal 13px Arial, sans-serif;list-style: none;margin: 0;padding: 4px 7em 4px 28px;white-space: nowrap;}.blocklyWidgetDiv .goog-menuitem.goog-menuitem-rtl {padding-left: 7em;padding-right: 28px;}.blocklyWidgetDiv .goog-menu-nocheckbox .goog-menuitem,.blocklyWidgetDiv .goog-menu-noicon .goog-menuitem {padding-left: 12px;}.blocklyWidgetDiv .goog-menu-noaccel .goog-menuitem {padding-right: 20px;}.blocklyWidgetDiv .goog-menuitem-content {color: #000;font: normal 13px Arial, sans-serif;}.blocklyWidgetDiv .goog-menuitem-disabled .goog-menuitem-accel,.blocklyWidgetDiv .goog-menuitem-disabled .goog-menuitem-content {color: #ccc !important;}.blocklyWidgetDiv .goog-menuitem-disabled .goog-menuitem-icon {opacity: 0.3;filter: alpha(opacity=30);}.blocklyWidgetDiv .goog-menuitem-highlight,.blocklyWidgetDiv .goog-menuitem-hover {background-color: #d6e9f8;border-color: #d6e9f8;border-style: dotted;border-width: 1px 0;padding-bottom: 3px;padding-top: 3px;}.blocklyWidgetDiv .goog-menuitem-checkbox,.blocklyWidgetDiv .goog-menuitem-icon {background-repeat: no-repeat;height: 16px;left: 6px;position: absolute;right: auto;vertical-align: middle;width: 16px;}.blocklyWidgetDiv .goog-menuitem-rtl .goog-menuitem-checkbox,.blocklyWidgetDiv .goog-menuitem-rtl .goog-menuitem-icon {left: auto;right: 6px;}.blocklyWidgetDiv .goog-option-selected .goog-menuitem-checkbox,.blocklyWidgetDiv .goog-option-selected .goog-menuitem-icon {background: url(//ssl.gstatic.com/editor/editortoolbar.png) no-repeat -512px 0;}.blocklyWidgetDiv .goog-menuitem-accel {color: #999;direction: ltr;left: auto;padding: 0 6px;position: absolute;right: 0;text-align: right;}.blocklyWidgetDiv .goog-menuitem-rtl .goog-menuitem-accel {left: 0;right: auto;text-align: left;}.blocklyWidgetDiv .goog-menuitem-mnemonic-hint {text-decoration: underline;}.blocklyWidgetDiv .goog-menuitem-mnemonic-separator {color: #999;font-size: 12px;padding-left: 4px;}.blocklyWidgetDiv .goog-menuseparator {border-top: 1px solid #ccc;margin: 4px 0;padding: 0;}.blocklyPathLight { fill: none;stroke-linecap: round;stroke-width: 1;}.blocklyText { cursor:default;fill: #fff;font-family: sans-serif;font-size: 11pt;}.blocklyNonEditableText&gt;text {pointer-events: none;}.blocklyNonEditableText&gt;rect,.blocklyEditableText&gt;rect {fill: #fff;fill-opacity: .6;}.blocklyNonEditableText&gt;text,.blocklyEditableText&gt;text {fill: #000;}.blocklyIconGroup,.blocklyIconGroupReadonly {opacity: .6;}.blocklyIconShape {fill: #00f;stroke: #fff;stroke-width: 1px;}.blocklyIconSymbol {fill: #fff;}</style><g data-id="a,N7b!k+S;P@3G!0/-lS" class="blocklyDraggable" transform="translate(12.000000000000227,13)"><path class="blocklyPathDark" transform="translate(1,1)" fill="#7a4984" d="m 0,0 H 125.17245483398438 v 25 v 5 c 0,10 -8,-8 -8,7.5 s 8,-2.5 8,7.5 v 56 H 0 V 20 c 0,-10 -8,8 -8,-7.5 s 8,2.5 8,-7.5 z&#10;"/><path class="blocklyPath" fill="#995ba5" d="m 0,0 H 125.17245483398438 v 25 v 5 c 0,10 -8,-8 -8,7.5 s 8,-2.5 8,7.5 v 56 H 0 V 20 c 0,-10 -8,8 -8,-7.5 s 8,2.5 8,-7.5 z&#10;"/><path class="blocklyPathLight" stroke="#b88cc0" d="m 0.5,0.5 H 124.67245483398438 M 124.67245483398438,0.5 M 124.67245483398438,25.5 M 120.17245483398438,44.3 l 3.68,-2.1 M 0.5,100.5 V 18.5 m -7.36,-0.5 q -1.52,-5.5 0,-11 m 7.36,1 V 0.5 H 1&#10;"/><text class="blocklyText" y="12.5" transform="translate(60.73725891113281,30)">newIris</text><text class="blocklyText" y="12.5" transform="translate(10,5)">classify</text><text class="blocklyText" y="12.5" transform="translate(68.06008911132812,5)">avec :</text><g data-id="qyt=*g7Ca6(c3jnD($ln" class="blocklyDraggable" transform="translate(126.17245483398438,25)"><path class="blocklyPathDark" transform="translate(1,1)" fill="#5d4984" d="m 0,0 H 242.3306121826172 v 25 v 5 c 0,10 -8,-8 -8,7.5 s 8,-2.5 8,7.5 v 6 v 5 c 0,10 -8,-8 -8,7.5 s 8,-2.5 8,7.5 v 5 H 0 V 20 c 0,-10 -8,8 -8,-7.5 s 8,2.5 8,-7.5 z&#10;"/><path class="blocklyPath" fill="#745ba5" d="m 0,0 H 242.3306121826172 v 25 v 5 c 0,10 -8,-8 -8,7.5 s 8,-2.5 8,7.5 v 6 v 5 c 0,10 -8,-8 -8,7.5 s 8,-2.5 8,7.5 v 5 H 0 V 20 c 0,-10 -8,8 -8,-7.5 s 8,2.5 8,-7.5 z&#10;"/><path class="blocklyPathLight" stroke="#9e8cc0" d="m 0.5,0.5 H 241.8306121826172 M 241.8306121826172,0.5 M 241.8306121826172,25.5 M 237.3306121826172,44.3 l 3.68,-2.1 M 241.8306121826172,51.5 M 237.3306121826172,70.3 l 3.68,-2.1 M 0.5,75.5 V 18.5 m -7.36,-0.5 q -1.52,-5.5 0,-11 m 7.36,1 V 0.5 H 1&#10;"/><g data-id=")gW}E[l/i*j$8Iqlyz+m" transform="translate(243.3306121826172,25)"><path class="blocklyPathDark" transform="translate(1,1)" fill="#bdc2db" d="m 0,0 H 40.37937927246094 v 25 H 0 V 20 c 0,-10 -8,8 -8,-7.5 s 8,2.5 8,-7.5 z&#10;"/><path class="blocklyPath" fill="#bdc2db" d="m 0,0 H 40.37937927246094 v 25 H 0 V 20 c 0,-10 -8,8 -8,-7.5 s 8,2.5 8,-7.5 z&#10;"/><path class="blocklyPathLight" d="m 0.5,0.5 H 39.87937927246094 M 39.87937927246094,0.5 M 0.5,24.5 V 18.5 m -7.36,-0.5 q -1.52,-5.5 0,-11 m 7.36,1 V 0.5 H 1&#10;" style="display: none;"/><g class="blocklyEditableText" transform="translate(10,5)" style="cursor: text;"><rect rx="4" ry="4" x="-5" y="0" height="16" width="30.379379272460938"/><text class="blocklyText" y="12.5">4.9</text></g></g><g data-id="_djaqMU1tyoCJE4WfK3z" transform="translate(243.3306121826172,51)"><path class="blocklyPathDark" transform="translate(1,1)" fill="#bdc2db" d="m 0,0 H 40.37937927246094 v 25 H 0 V 20 c 0,-10 -8,8 -8,-7.5 s 8,2.5 8,-7.5 z&#10;"/><path class="blocklyPath" fill="#bdc2db" d="m 0,0 H 40.37937927246094 v 25 H 0 V 20 c 0,-10 -8,8 -8,-7.5 s 8,2.5 8,-7.5 z&#10;"/><path class="blocklyPathLight" d="m 0.5,0.5 H 39.87937927246094 M 39.87937927246094,0.5 M 0.5,24.5 V 18.5 m -7.36,-0.5 q -1.52,-5.5 0,-11 m 7.36,1 V 0.5 H 1&#10;" style="display: none;"/><g class="blocklyEditableText" transform="translate(10,5)" style="cursor: text;"><rect rx="4" ry="4" x="-5" y="0" height="16" width="30.379379272460938"/><text class="blocklyText" y="12.5">4.2</text></g></g><text class="blocklyText" y="12.5" transform="translate(10,5)">Créer une fleur aux coordonnées</text><text class="blocklyText" y="12.5" transform="translate(217.00062561035156,30)">x</text><text class="blocklyText" y="12.5" transform="translate(217.00062561035156,56)">y</text></g></g><g data-id="*2|!Xf?lqhIfgIyh)_y7" class="blocklyDraggable" transform="translate(13,163)"><path class="blocklyPathDark" transform="translate(1,1)" fill="#7a4984" d="m 0,8 A 8,8 0 0,1 8,0 H 269.0220947265625 v 25 H 50 l -6,4 -3,0 -6,-4 h -7 a 8,8 0 0,0 -8,8 v 138 a 8,8 0 0,0 8,8 H 269.0220947265625 v 5 c 0,10 -8,-8 -8,7.5 s 8,-2.5 8,7.5 v 5 H 8 a 8,8 0 0,1 -8,-8 z&#10;"/><path class="blocklyPath" fill="#995ba5" d="m 0,8 A 8,8 0 0,1 8,0 H 269.0220947265625 v 25 H 50 l -6,4 -3,0 -6,-4 h -7 a 8,8 0 0,0 -8,8 v 138 a 8,8 0 0,0 8,8 H 269.0220947265625 v 5 c 0,10 -8,-8 -8,7.5 s 8,-2.5 8,7.5 v 5 H 8 a 8,8 0 0,1 -8,-8 z&#10;"/><path class="blocklyPathLight" stroke="#b88cc0" d="m 0.5,7.5 A 7.5,7.5 0 0,1 8,0.5 H 268.5220947265625 M 268.5220947265625,0.5 M 268.5220947265625,25.5 M 21.989592359914347,177.01040764008565 a 8.5,8.5 0 0,0 6.0104076400856545,2.4895923599143455 H 268.5220947265625 M 268.5220947265625,179.5 M 264.0220947265625,198.3 l 3.68,-2.1 M 2.6966991411008934,201.3033008588991 A 7.5,7.5 0 0,1 0.5,196 V 8&#10;"/><g class="blocklyIconGroup" display="block" transform="translate(10,5)"><rect class="blocklyIconShape" rx="4" ry="4" height="16" width="16"/><path class="blocklyIconSymbol" d="m4.203,7.296 0,1.368 -0.92,0.677 -0.11,0.41 0.9,1.559 0.41,0.11 1.043,-0.457 1.187,0.683 0.127,1.134 0.3,0.3 1.8,0 0.3,-0.299 0.127,-1.138 1.185,-0.682 1.046,0.458 0.409,-0.11 0.9,-1.559 -0.11,-0.41 -0.92,-0.677 0,-1.366 0.92,-0.677 0.11,-0.41 -0.9,-1.559 -0.409,-0.109 -1.046,0.458 -1.185,-0.682 -0.127,-1.138 -0.3,-0.299 -1.8,0 -0.3,0.3 -0.126,1.135 -1.187,0.682 -1.043,-0.457 -0.41,0.11 -0.899,1.559 0.108,0.409z"/><circle class="blocklyIconShape" r="2.7" cx="8" cy="8"/></g><g class="blocklyIconGroup" display="block" transform="translate(37,5)"><circle class="blocklyIconShape" r="8" cx="8" cy="8"/><path class="blocklyIconSymbol" d="m6.8,10h2c0.003,-0.617 0.271,-0.962 0.633,-1.266 2.875,-2.4050.607,-5.534 -3.765,-3.874v1.7c3.12,-1.657 3.698,0.118 2.336,1.25-1.201,0.998 -1.201,1.528 -1.204,2.19z"/><rect class="blocklyIconSymbol" x="6.8" y="10.78" height="2" width="2"/></g><text class="blocklyText" y="12.5" transform="translate(64,5)">pour</text><g class="blocklyEditableText" transform="translate(103.3414306640625,5)" style="cursor: text;"><rect rx="4" ry="4" x="-5" y="0" height="16" width="58.060089111328125"/><text class="blocklyText" y="12.5">classify</text></g><text class="blocklyText" y="12.5" transform="translate(161.40151977539062,5)">avec : newIris</text><text class="blocklyText" y="12.5" transform="translate(212.72576904296875,184)">retour</text><g data-id="Och@s2R:Js`{j$]LR2-=" class="blocklyDraggable" transform="translate(270.0220947265625,179)"><path class="blocklyPathDark" transform="translate(1,1)" fill="#844966" d="m 0,0 H 111.28843688964844 v 25 H 0 V 20 c 0,-10 -8,8 -8,-7.5 s 8,2.5 8,-7.5 z&#10;"/><path class="blocklyPath" fill="#a55b80" d="m 0,0 H 111.28843688964844 v 25 H 0 V 20 c 0,-10 -8,8 -8,-7.5 s 8,2.5 8,-7.5 z&#10;"/><path class="blocklyPathLight" stroke="#c08ca6" d="m 0.5,0.5 H 110.78843688964844 M 110.78843688964844,0.5 M 0.5,24.5 V 18.5 m -7.36,-0.5 q -1.52,-5.5 0,-11 m 7.36,1 V 0.5 H 1&#10;"/><g class="blocklyEditableText" style="cursor: default;" transform="translate(10,5)"><rect rx="4" ry="4" x="-5" y="0" height="16" width="101.28843688964844"/><text class="blocklyText" y="12.5" text-anchor="start" x="0">fleurPredite<tspan style="fill: rgb(165, 91, 128);"> ▾</tspan></text></g></g><g data-id="5BfOzIKf*gOS9yhLZET," class="blocklyDraggable" transform="translate(21,26)"><path class="blocklyPathDark" transform="translate(1,1)" fill="#844966" d="m 0,8 A 8,8 0 0,1 8,0 H 15 l 6,4 3,0 6,-4 H 175.13665771484375 v 5 c 0,10 -8,-8 -8,7.5 s 8,-2.5 8,7.5 v 5 H 29.5 l -6,4 -3,0 -6,-4 H 0 z&#10;"/><path class="blocklyPath" fill="#a55b80" d="m 0,8 A 8,8 0 0,1 8,0 H 15 l 6,4 3,0 6,-4 H 175.13665771484375 v 5 c 0,10 -8,-8 -8,7.5 s 8,-2.5 8,7.5 v 5 H 29.5 l -6,4 -3,0 -6,-4 H 0 z&#10;"/><path class="blocklyPathLight" stroke="#c08ca6" d="m 0.5,7.5 A 7.5,7.5 0 0,1 8,0.5 H 15 l 6,4 3,0 6,-4 H 174.63665771484375 M 174.63665771484375,0.5 M 170.13665771484375,19.3 l 3.68,-2.1 M 0.5,24.5 V 8&#10;"/><g data-id="d@{x$KZky#Mo2m||v2u]" transform="translate(176.13665771484375,0)"><path class="blocklyPathDark" transform="translate(1,1)" fill="#bdc2db" d="m 0,0 H 234.32347106933594 v 24 H 0 V 20 c 0,-10 -8,8 -8,-7.5 s 8,2.5 8,-7.5 z&#10;"/><path class="blocklyPath" fill="#bdc2db" d="m 0,0 H 234.32347106933594 v 24 H 0 V 20 c 0,-10 -8,8 -8,-7.5 s 8,2.5 8,-7.5 z&#10;"/><path class="blocklyPathLight" d="m 0.5,0.5 H 233.82347106933594 M 233.82347106933594,0.5 M 0.5,23.5 V 18.5 m -7.36,-0.5 q -1.52,-5.5 0,-11 m 7.36,1 V 0.5 H 1&#10;" style="display: none;"/><text class="blocklyText" y="12.5" transform="translate(10,5)">Obtenir un nom de fleur aléatoire</text></g><text class="blocklyText" y="12.5" transform="translate(10,5)">fixer</text><g class="blocklyEditableText" transform="translate(47.695037841796875,5)" style="cursor: default;"><rect rx="4" ry="4" x="-5" y="0" height="16" width="101.28843688964844"/><text class="blocklyText" y="12.5" text-anchor="start" x="0">fleurPredite<tspan style="fill: rgb(165, 91, 128);"> ▾</tspan></text></g><text class="blocklyText" y="12.5" transform="translate(148.9834747314453,5)">à</text><g data-id="c9[MIB3~i;D*B9YPrA~y" class="blocklyDraggable" transform="translate(0,26)"><path class="blocklyPathDark" transform="translate(1,1)" fill="#495284" d="m 0,0 H 15 l 6,4 3,0 6,-4 H 191.09510803222656 v 24 H 29.5 l -6,4 -3,0 -6,-4 H 0 z&#10;"/><path class="blocklyPath" fill="#5b67a5" d="m 0,0 H 15 l 6,4 3,0 6,-4 H 191.09510803222656 v 24 H 29.5 l -6,4 -3,0 -6,-4 H 0 z&#10;"/><path class="blocklyPathLight" stroke="#8c95c0" d="m 0.5,0.5 H 15 l 6,4 3,0 6,-4 H 190.59510803222656 M 190.59510803222656,0.5 M 0.5,23.5 V 0.5&#10;"/><text class="blocklyText" y="12.5" transform="translate(10,5)">Réinitialiser les compteurs</text><g data-id="./H8Hj.~c*f47}N4zXU^" class="blocklyDraggable" transform="translate(0,25)"><path class="blocklyPathDark" transform="translate(1,1)" fill="#495284" d="m 0,0 H 15 l 6,4 3,0 6,-4 H 40 H 500.41644287109375 v 36 H 29.5 l -6,4 -3,0 -6,-4 H 0 z&#10;M 244.39219665527344,5 h -30.153182983398438 v 5 c 0,10 -8,-8 -8,7.5 s 8,-2.5 8,7.5 v 7 h 30.153182983398438 z M 490.41644287109375,5 h -43.18824768066406 v 5 c 0,10 -8,-8 -8,7.5 s 8,-2.5 8,7.5 v 7 h 43.18824768066406 z"/><path class="blocklyPath" fill="#5b67a5" d="m 0,0 H 15 l 6,4 3,0 6,-4 H 40 H 500.41644287109375 v 36 H 29.5 l -6,4 -3,0 -6,-4 H 0 z&#10;M 244.39219665527344,5 h -30.153182983398438 v 5 c 0,10 -8,-8 -8,7.5 s 8,-2.5 8,7.5 v 7 h 30.153182983398438 z M 490.41644287109375,5 h -43.18824768066406 v 5 c 0,10 -8,-8 -8,7.5 s 8,-2.5 8,7.5 v 7 h 43.18824768066406 z"/><path class="blocklyPathLight" stroke="#8c95c0" d="m 0.5,0.5 H 15 l 6,4 3,0 6,-4 H 39.5 M 39.5,0.5 H 499.91644287109375 M 0.5,35.5 V 0.5&#10;M 244.89219665527344,5.5 v 27 h -30.153182983398438 M 209.139013671875,24.3 l 3.68,-2.1 M 490.91644287109375,5.5 v 27 h -43.18824768066406 M 442.12819519042966,24.3 l 3.68,-2.1"/><g data-id="jBqRvz+a].hIE-vh5-$b" transform="translate(215.239013671875,6)"><path class="blocklyPathDark" transform="translate(1,1)" fill="#bdc2db" d="m 0,0 H 28.153182983398438 v 25 H 0 V 20 c 0,-10 -8,8 -8,-7.5 s 8,2.5 8,-7.5 z&#10;"/><path class="blocklyPath" fill="#bdc2db" d="m 0,0 H 28.153182983398438 v 25 H 0 V 20 c 0,-10 -8,8 -8,-7.5 s 8,2.5 8,-7.5 z&#10;"/><path class="blocklyPathLight" d="m 0.5,0.5 H 27.653182983398438 M 27.653182983398438,0.5 M 0.5,24.5 V 18.5 m -7.36,-0.5 q -1.52,-5.5 0,-11 m 7.36,1 V 0.5 H 1&#10;" style="display: none;"/><g class="blocklyEditableText" transform="translate(10,5)" style="cursor: text;"><rect rx="4" ry="4" x="-5" y="0" height="16" width="18.153182983398438"/><text class="blocklyText" y="12.5">1</text></g></g><g data-id="z,L#kHee*Jm$#P{fP!5m" transform="translate(448.2281951904297,6)"><path class="blocklyPathDark" transform="translate(1,1)" fill="#bdc2db" d="m 0,0 H 41.18824768066406 v 25 H 0 V 20 c 0,-10 -8,8 -8,-7.5 s 8,2.5 8,-7.5 z&#10;"/><path class="blocklyPath" fill="#bdc2db" d="m 0,0 H 41.18824768066406 v 25 H 0 V 20 c 0,-10 -8,8 -8,-7.5 s 8,2.5 8,-7.5 z&#10;"/><path class="blocklyPathLight" d="m 0.5,0.5 H 40.68824768066406 M 40.68824768066406,0.5 M 0.5,24.5 V 18.5 m -7.36,-0.5 q -1.52,-5.5 0,-11 m 7.36,1 V 0.5 H 1&#10;" style="display: none;"/><g class="blocklyEditableText" transform="translate(10,5)" style="cursor: text;"><rect rx="4" ry="4" x="-5" y="0" height="16" width="31.188247680664062"/><text class="blocklyText" y="12.5">-10</text></g></g><text class="blocklyText" y="12.5" transform="translate(10,10)">Augmenter le compteur de la</text><text class="blocklyText" y="12.5" transform="translate(254.39219665527344,10)">ème fleur la plus proche de</text><g data-id="InPPWXB;5tXKS//zkk/Y" class="blocklyDraggable" transform="translate(0,37)"><path class="blocklyPathDark" transform="translate(1,1)" fill="#495284" d="m 0,0 H 15 l 6,4 3,0 6,-4 H 40 H 495.53456115722656 v 36 H 29.5 l -6,4 -3,0 -6,-4 H 0 z&#10;M 244.39219665527344,5 h -30.153182983398438 v 5 c 0,10 -8,-8 -8,7.5 s 8,-2.5 8,7.5 v 7 h 30.153182983398438 z M 485.53456115722656,5 h -38.306365966796875 v 5 c 0,10 -8,-8 -8,7.5 s 8,-2.5 8,7.5 v 7 h 38.306365966796875 z"/><path class="blocklyPath" fill="#5b67a5" d="m 0,0 H 15 l 6,4 3,0 6,-4 H 40 H 495.53456115722656 v 36 H 29.5 l -6,4 -3,0 -6,-4 H 0 z&#10;M 244.39219665527344,5 h -30.153182983398438 v 5 c 0,10 -8,-8 -8,7.5 s 8,-2.5 8,7.5 v 7 h 30.153182983398438 z M 485.53456115722656,5 h -38.306365966796875 v 5 c 0,10 -8,-8 -8,7.5 s 8,-2.5 8,7.5 v 7 h 38.306365966796875 z"/><path class="blocklyPathLight" stroke="#8c95c0" d="m 0.5,0.5 H 15 l 6,4 3,0 6,-4 H 39.5 M 39.5,0.5 H 495.03456115722656 M 0.5,35.5 V 0.5&#10;M 244.89219665527344,5.5 v 27 h -30.153182983398438 M 209.139013671875,24.3 l 3.68,-2.1 M 486.03456115722656,5.5 v 27 h -38.306365966796875 M 442.12819519042966,24.3 l 3.68,-2.1"/><g data-id=",~jlkLYNVV.[qJd2DNo?" transform="translate(215.239013671875,6)"><path class="blocklyPathDark" transform="translate(1,1)" fill="#bdc2db" d="m 0,0 H 28.153182983398438 v 25 H 0 V 20 c 0,-10 -8,8 -8,-7.5 s 8,2.5 8,-7.5 z&#10;"/><path class="blocklyPath" fill="#bdc2db" d="m 0,0 H 28.153182983398438 v 25 H 0 V 20 c 0,-10 -8,8 -8,-7.5 s 8,2.5 8,-7.5 z&#10;"/><path class="blocklyPathLight" d="m 0.5,0.5 H 27.653182983398438 M 27.653182983398438,0.5 M 0.5,24.5 V 18.5 m -7.36,-0.5 q -1.52,-5.5 0,-11 m 7.36,1 V 0.5 H 1&#10;" style="display: none;"/><g class="blocklyEditableText" transform="translate(10,5)" style="cursor: text;"><rect rx="4" ry="4" x="-5" y="0" height="16" width="18.153182983398438"/><text class="blocklyText" y="12.5">2</text></g></g><g data-id="1cY(xzzVXIqNw2l:8DT." transform="translate(448.2281951904297,6)"><path class="blocklyPathDark" transform="translate(1,1)" fill="#bdc2db" d="m 0,0 H 36.306365966796875 v 25 H 0 V 20 c 0,-10 -8,8 -8,-7.5 s 8,2.5 8,-7.5 z&#10;"/><path class="blocklyPath" fill="#bdc2db" d="m 0,0 H 36.306365966796875 v 25 H 0 V 20 c 0,-10 -8,8 -8,-7.5 s 8,2.5 8,-7.5 z&#10;"/><path class="blocklyPathLight" d="m 0.5,0.5 H 35.806365966796875 M 35.806365966796875,0.5 M 0.5,24.5 V 18.5 m -7.36,-0.5 q -1.52,-5.5 0,-11 m 7.36,1 V 0.5 H 1&#10;" style="display: none;"/><g class="blocklyEditableText" transform="translate(10,5)" style="cursor: text;"><rect rx="4" ry="4" x="-5" y="0" height="16" width="26.306365966796875"/><text class="blocklyText" y="12.5">20</text></g></g><text class="blocklyText" y="12.5" transform="translate(10,10)">Augmenter le compteur de la</text><text class="blocklyText" y="12.5" transform="translate(254.39219665527344,10)">ème fleur la plus proche de</text><g data-id="Emr7qg($m]k/f+%?VmYd" class="blocklyDraggable" transform="translate(0,37)"><path class="blocklyPathDark" transform="translate(1,1)" fill="#498470" d="m 0,0 H 15 l 6,4 3,0 6,-4 H 75.8095703125 v 5 c 0,10 -8,-8 -8,7.5 s 8,-2.5 8,7.5 v 4 H 29.5 l -6,4 -3,0 -6,-4 H 8 a 8,8 0 0,1 -8,-8 z&#10;"/><path class="blocklyPath" fill="#5ba58c" d="m 0,0 H 15 l 6,4 3,0 6,-4 H 75.8095703125 v 5 c 0,10 -8,-8 -8,7.5 s 8,-2.5 8,7.5 v 4 H 29.5 l -6,4 -3,0 -6,-4 H 8 a 8,8 0 0,1 -8,-8 z&#10;"/><path class="blocklyPathLight" stroke="#8cc0af" d="m 0.5,0.5 H 15 l 6,4 3,0 6,-4 H 75.3095703125 M 75.3095703125,0.5 M 70.8095703125,19.3 l 3.68,-2.1 M 2.6966991411008934,21.303300858899107 A 7.5,7.5 0 0,1 0.5,16 V 0.5&#10;"/><text class="blocklyText" y="12.5" transform="translate(10,5)">afficher</text><g data-id="T4ih$_:fR:OtOdlCHo)k" class="blocklyDraggable" transform="translate(76.8095703125,5.684341886080802e-14)"><path class="blocklyPathDark" transform="translate(1,1)" fill="#495784" d="m 0,0 H 91.69647216796875 v 24 H 0 V 20 c 0,-10 -8,8 -8,-7.5 s 8,2.5 8,-7.5 z&#10;"/><path class="blocklyPath" fill="#5b6da5" d="m 0,0 H 91.69647216796875 v 24 H 0 V 20 c 0,-10 -8,8 -8,-7.5 s 8,2.5 8,-7.5 z&#10;"/><path class="blocklyPathLight" stroke="#8c99c0" d="m 0.5,0.5 H 91.19647216796875 M 91.19647216796875,0.5 M 0.5,23.5 V 18.5 m -7.36,-0.5 q -1.52,-5.5 0,-11 m 7.36,1 V 0.5 H 1&#10;"/><text class="blocklyText" y="12.5" transform="translate(10,5)">Compteurs</text></g></g></g></g></g></g></g></g></svg>