<svg version="1.1" xmlns="http://www.w3.org/2000/svg" xmlns:xlink="http://www.w3.org/1999/xlink" width="912.046875" height="81" viewBox="13 88 912.046875 81"><rect width="100%" height="100%" fill="white"></rect><g xmlns="http://www.w3.org/2000/svg" class="blocklyBlockCanvas"><style>.blocklySvg {background-color: #fff;outline: none;overflow: hidden;position: absolute;display: block;}.blocklyWidgetDiv {display: none;position: absolute;z-index: 99999;}.injectionDiv {height: 100%;position: relative;overflow: hidden;touch-action: none}.blocklyNonSelectable {user-select: none;-moz-user-select: none;-ms-user-select: none;-webkit-user-select: none;}.blocklyWsDragSurface {display: none;position: absolute;top: 0;left: 0;}.blocklyWsDragSurface.blocklyOverflowVisible {overflow: visible;}.blocklyBlockDragSurface {display: none;position: absolute;top: 0;left: 0;right: 0;bottom: 0;overflow: visible !important;z-index: 50;}.blocklyBlockCanvas.blocklyCanvasTransitioning,.blocklyBubbleCanvas.blocklyCanvasTransitioning {transition: transform .5s;}.blocklyTooltipDiv {background-color: #ffffc7;border: 1px solid #ddc;box-shadow: 4px 4px 20px 1px rgba(0,0,0,.15);color: #000;display: none;font-family: sans-serif;font-size: 9pt;opacity: .9;padding: 2px;position: absolute;z-index: 100000;}.blocklyResizeSE {cursor: se-resize;fill: #aaa;}.blocklyResizeSW {cursor: sw-resize;fill: #aaa;}.blocklyResizeLine {stroke: #515A5A;stroke-width: 1;}.blocklyHighlightedConnectionPath {fill: none;stroke: #fc3;stroke-width: 4px;}.blocklyPathLight {fill: none;stroke-linecap: round;stroke-width: 1;}.blocklySelected&gt;.blocklyPath {stroke: #fc3;stroke-width: 3px;}.blocklySelected&gt;.blocklyPathLight {display: none;}.blocklyDraggable {cursor: url("&lt;&lt;&lt;PATH&gt;&gt;&gt;/handopen.cur"), auto;cursor: grab;cursor: -webkit-grab;}.blocklyDragging {cursor: url("&lt;&lt;&lt;PATH&gt;&gt;&gt;/handclosed.cur"), auto;cursor: grabbing;cursor: -webkit-grabbing;}.blocklyDraggable:active {cursor: url("&lt;&lt;&lt;PATH&gt;&gt;&gt;/handclosed.cur"), auto;cursor: grabbing;cursor: -webkit-grabbing;}.blocklyBlockDragSurface .blocklyDraggable {cursor: url("&lt;&lt;&lt;PATH&gt;&gt;&gt;/handclosed.cur"), auto;cursor: grabbing;cursor: -webkit-grabbing;}.blocklyDragging.blocklyDraggingDelete {cursor: url("&lt;&lt;&lt;PATH&gt;&gt;&gt;/handdelete.cur"), auto;}.blocklyToolboxDelete {cursor: url("&lt;&lt;&lt;PATH&gt;&gt;&gt;/handdelete.cur"), auto;}.blocklyToolboxGrab {cursor: url("&lt;&lt;&lt;PATH&gt;&gt;&gt;/handclosed.cur"), auto;cursor: grabbing;cursor: -webkit-grabbing;}.blocklyDragging&gt;.blocklyPath,.blocklyDragging&gt;.blocklyPathLight {fill-opacity: .8;stroke-opacity: .8;}.blocklyDragging&gt;.blocklyPathDark {display: none;}.blocklyDisabled&gt;.blocklyPath {fill-opacity: .5;stroke-opacity: .5;}.blocklyDisabled&gt;.blocklyPathLight,.blocklyDisabled&gt;.blocklyPathDark {display: none;}.blocklyText {cursor: default;fill: #fff;font-family: sans-serif;font-size: 11pt;}.blocklyNonEditableText&gt;text {pointer-events: none;}.blocklyNonEditableText&gt;rect,.blocklyEditableText&gt;rect {fill: #fff;fill-opacity: .6;}.blocklyNonEditableText&gt;text,.blocklyEditableText&gt;text {fill: #000;}.blocklyEditableText:hover&gt;rect {stroke: #fff;stroke-width: 2;}.blocklyBubbleText {fill: #000;}.blocklyFlyout {position: absolute;z-index: 20;}.blocklyFlyoutButton {fill: #888;cursor: default;}.blocklyFlyoutButtonShadow {fill: #666;}.blocklyFlyoutButton:hover {fill: #aaa;}.blocklyFlyoutLabel {cursor: default;}.blocklyFlyoutLabelBackground {opacity: 0;}.blocklyFlyoutLabelText {fill: #000;}.blocklySvg text, .blocklyBlockDragSurface text {user-select: none;-moz-user-select: none;-ms-user-select: none;-webkit-user-select: none;cursor: inherit;}.blocklyHidden {display: none;}.blocklyFieldDropdown:not(.blocklyHidden) {display: block;}.blocklyIconGroup {cursor: default;}.blocklyIconGroup:not(:hover),.blocklyIconGroupReadonly {opacity: .6;}.blocklyIconShape {fill: #00f;stroke: #fff;stroke-width: 1px;}.blocklyIconSymbol {fill: #fff;}.blocklyMinimalBody {margin: 0;padding: 0;}.blocklyCommentForeignObject {position: relative;z-index: 0;}.blocklyCommentRect {fill: #E7DE8E;stroke: #bcA903;stroke-width: 1px}.blocklyCommentTarget {fill: transparent;stroke: #bcA903;}.blocklyCommentTargetFocused {fill: none;}.blocklyCommentHandleTarget {fill: none;}.blocklyCommentHandleTargetFocused {fill: transparent;}.blocklyFocused&gt;.blocklyCommentRect {fill: #B9B272;stroke: #B9B272;}.blocklySelected&gt;.blocklyCommentTarget {stroke: #fc3;stroke-width: 3px;}.blocklyCommentTextarea {background-color: #fef49c;border: 0;outline: 0;margin: 0;padding: 3px;resize: none;display: block;overflow: hidden;}.blocklyCommentDeleteIcon {cursor: pointer;fill: #000;display: none}.blocklySelected &gt; .blocklyCommentDeleteIcon {display: block}.blocklyDeleteIconShape {fill: #000;stroke: #000;stroke-width: 1px;}.blocklyDeleteIconShape.blocklyDeleteIconHighlighted {stroke: #fc3;}.blocklyHtmlInput {border: none;border-radius: 4px;font-family: sans-serif;height: 100%;margin: 0;outline: none;padding: 0 1px;width: 100%}.blocklyMainBackground {stroke-width: 1;stroke: #c6c6c6;}.blocklyMutatorBackground {fill: #fff;stroke: #ddd;stroke-width: 1;}.blocklyFlyoutBackground {fill: #ddd;fill-opacity: .8;}.blocklyTransparentBackground {opacity: 0;}.blocklyMainWorkspaceScrollbar {z-index: 20;}.blocklyFlyoutScrollbar {z-index: 30;}.blocklyScrollbarHorizontal, .blocklyScrollbarVertical {position: absolute;outline: none;}.blocklyScrollbarBackground {opacity: 0;}.blocklyScrollbarHandle {fill: #ccc;}.blocklyScrollbarBackground:hover+.blocklyScrollbarHandle,.blocklyScrollbarHandle:hover {fill: #bbb;}.blocklyZoom&gt;image {opacity: .4;}.blocklyZoom&gt;image:hover {opacity: .6;}.blocklyZoom&gt;image:active {opacity: .8;}.blocklyFlyout .blocklyScrollbarHandle {fill: #bbb;}.blocklyFlyout .blocklyScrollbarBackground:hover+.blocklyScrollbarHandle,.blocklyFlyout .blocklyScrollbarHandle:hover {fill: #aaa;}.blocklyInvalidInput {background: #faa;}.blocklyAngleCircle {stroke: #444;stroke-width: 1;fill: #ddd;fill-opacity: .8;}.blocklyAngleMarks {stroke: #444;stroke-width: 1;}.blocklyAngleGauge {fill: #f88;fill-opacity: .8;}.blocklyAngleLine {stroke: #f00;stroke-width: 2;stroke-linecap: round;pointer-events: none;}.blocklyContextMenu {border-radius: 4px;}.blocklyDropdownMenu {padding: 0 !important;}.blocklyWidgetDiv .goog-option-selected .goog-menuitem-checkbox,.blocklyWidgetDiv .goog-option-selected .goog-menuitem-icon {background: url(&lt;&lt;&lt;PATH&gt;&gt;&gt;/sprites.png) no-repeat -48px -16px !important;}.blocklyToolboxDiv {background-color: #ddd;overflow-x: visible;overflow-y: auto;position: absolute;user-select: none;-moz-user-select: none;-ms-user-select: none;-webkit-user-select: none;z-index: 70;-webkit-tap-highlight-color: transparent;}.blocklyTreeRoot {padding: 4px 0;}.blocklyTreeRoot:focus {outline: none;}.blocklyTreeRow {height: 22px;line-height: 22px;margin-bottom: 3px;padding-right: 8px;white-space: nowrap;}.blocklyHorizontalTree {float: left;margin: 1px 5px 8px 0;}.blocklyHorizontalTreeRtl {float: right;margin: 1px 0 8px 5px;}.blocklyToolboxDiv[dir="RTL"] .blocklyTreeRow {margin-left: 8px;}.blocklyTreeRow:not(.blocklyTreeSelected):hover {background-color: #e4e4e4;}.blocklyTreeSeparator {border-bottom: solid #e5e5e5 1px;height: 0;margin: 5px 0;}.blocklyTreeSeparatorHorizontal {border-right: solid #e5e5e5 1px;width: 0;padding: 5px 0;margin: 0 5px;}.blocklyTreeIcon {background-image: url(&lt;&lt;&lt;PATH&gt;&gt;&gt;/sprites.png);height: 16px;vertical-align: middle;width: 16px;}.blocklyTreeIconClosedLtr {background-position: -32px -1px;}.blocklyTreeIconClosedRtl {background-position: 0 -1px;}.blocklyTreeIconOpen {background-position: -16px -1px;}.blocklyTreeSelected&gt;.blocklyTreeIconClosedLtr {background-position: -32px -17px;}.blocklyTreeSelected&gt;.blocklyTreeIconClosedRtl {background-position: 0 -17px;}.blocklyTreeSelected&gt;.blocklyTreeIconOpen {background-position: -16px -17px;}.blocklyTreeIconNone,.blocklyTreeSelected&gt;.blocklyTreeIconNone {background-position: -48px -1px;}.blocklyTreeLabel {cursor: default;font-family: sans-serif;font-size: 16px;padding: 0 3px;vertical-align: middle;}.blocklyToolboxDelete .blocklyTreeLabel {cursor: url("&lt;&lt;&lt;PATH&gt;&gt;&gt;/handdelete.cur"), auto;}.blocklyTreeSelected .blocklyTreeLabel {color: #fff;}.blocklyColourTable {border-collapse: collapse;}.blocklyColourTable&gt;tr&gt;td {border: 1px solid #666;padding: 0;}.blocklyColourTable&gt;tr&gt;td&gt;div {border: 1px solid #666;height: 13px;width: 15px;}.blocklyColourTable&gt;tr&gt;td&gt;div:hover {border: 1px solid #fff;}.blocklyColourSelected, .blocklyColourSelected:hover {border: 1px solid #000 !important;}.blocklyWidgetDiv .goog-menu {background: #fff;border-color: #ccc #666 #666 #ccc;border-style: solid;border-width: 1px;cursor: default;font: normal 13px Arial, sans-serif;margin: 0;outline: none;padding: 4px 0;position: absolute;overflow-y: auto;overflow-x: hidden;max-height: 100%;z-index: 20000;}.blocklyWidgetDiv .goog-menuitem {color: #000;font: normal 13px Arial, sans-serif;list-style: none;margin: 0;padding: 4px 7em 4px 28px;white-space: nowrap;}.blocklyWidgetDiv .goog-menuitem.goog-menuitem-rtl {padding-left: 7em;padding-right: 28px;}.blocklyWidgetDiv .goog-menu-nocheckbox .goog-menuitem,.blocklyWidgetDiv .goog-menu-noicon .goog-menuitem {padding-left: 12px;}.blocklyWidgetDiv .goog-menu-noaccel .goog-menuitem {padding-right: 20px;}.blocklyWidgetDiv .goog-menuitem-content {color: #000;font: normal 13px Arial, sans-serif;}.blocklyWidgetDiv .goog-menuitem-disabled .goog-menuitem-accel,.blocklyWidgetDiv .goog-menuitem-disabled .goog-menuitem-content {color: #ccc !important;}.blocklyWidgetDiv .goog-menuitem-disabled .goog-menuitem-icon {opacity: 0.3;filter: alpha(opacity=30);}.blocklyWidgetDiv .goog-menuitem-highlight,.blocklyWidgetDiv .goog-menuitem-hover {background-color: #d6e9f8;border-color: #d6e9f8;border-style: dotted;border-width: 1px 0;padding-bottom: 3px;padding-top: 3px;}.blocklyWidgetDiv .goog-menuitem-checkbox,.blocklyWidgetDiv .goog-menuitem-icon {background-repeat: no-repeat;height: 16px;left: 6px;position: absolute;right: auto;vertical-align: middle;width: 16px;}.blocklyWidgetDiv .goog-menuitem-rtl .goog-menuitem-checkbox,.blocklyWidgetDiv .goog-menuitem-rtl .goog-menuitem-icon {left: auto;right: 6px;}.blocklyWidgetDiv .goog-option-selected .goog-menuitem-checkbox,.blocklyWidgetDiv .goog-option-selected .goog-menuitem-icon {background: url(//ssl.gstatic.com/editor/editortoolbar.png) no-repeat -512px 0;}.blocklyWidgetDiv .goog-menuitem-accel {color: #999;direction: ltr;left: auto;padding: 0 6px;position: absolute;right: 0;text-align: right;}.blocklyWidgetDiv .goog-menuitem-rtl .goog-menuitem-accel {left: 0;right: auto;text-align: left;}.blocklyWidgetDiv .goog-menuitem-mnemonic-hint {text-decoration: underline;}.blocklyWidgetDiv .goog-menuitem-mnemonic-separator {color: #999;font-size: 12px;padding-left: 4px;}.blocklyWidgetDiv .goog-menuseparator {border-top: 1px solid #ccc;margin: 4px 0;padding: 0;}.blocklyPathLight { fill: none;stroke-linecap: round;stroke-width: 1;}.blocklyText { cursor:default;fill: #fff;font-family: sans-serif;font-size: 11pt;}.blocklyNonEditableText&gt;text {pointer-events: none;}.blocklyNonEditableText&gt;rect,.blocklyEditableText&gt;rect {fill: #fff;fill-opacity: .6;}.blocklyNonEditableText&gt;text,.blocklyEditableText&gt;text {fill: #000;}.blocklyIconGroup,.blocklyIconGroupReadonly {opacity: .6;}.blocklyIconShape {fill: #00f;stroke: #fff;stroke-width: 1px;}.blocklyIconSymbol {fill: #fff;}</style><g data-id="DrP.jSiWJQwxNtO~MV5G" class="blocklyDraggable" transform="translate(13,88)"><path class="blocklyPathDark" transform="translate(1,1)" fill="#7a4984" d="m 0,8 A 8,8 0 0,1 8,0 H 544.5123138427734 v 25 H 50 l -6,4 -3,0 -6,-4 h -7 a 8,8 0 0,0 -8,8 v 14 a 8,8 0 0,0 8,8 H 544.5123138427734 v 5 c 0,10 -8,-8 -8,7.5 s 8,-2.5 8,7.5 v 5 H 8 a 8,8 0 0,1 -8,-8 z&#10;"/><path class="blocklyPath" fill="#995ba5" d="m 0,8 A 8,8 0 0,1 8,0 H 544.5123138427734 v 25 H 50 l -6,4 -3,0 -6,-4 h -7 a 8,8 0 0,0 -8,8 v 14 a 8,8 0 0,0 8,8 H 544.5123138427734 v 5 c 0,10 -8,-8 -8,7.5 s 8,-2.5 8,7.5 v 5 H 8 a 8,8 0 0,1 -8,-8 z&#10;"/><path class="blocklyPathLight" stroke="#b88cc0" d="m 0.5,7.5 A 7.5,7.5 0 0,1 8,0.5 H 544.0123138427734 M 544.0123138427734,0.5 M 544.0123138427734,25.5 M 21.989592359914347,53.01040764008565 a 8.5,8.5 0 0,0 6.0104076400856545,2.4895923599143455 H 544.0123138427734 M 544.0123138427734,55.5 M 539.5123138427734,74.3 l 3.68,-2.1 M 2.6966991411008934,77.3033008588991 A 7.5,7.5 0 0,1 0.5,72 V 8&#10;"/><g class="blocklyIconGroup" display="block" transform="translate(10,5)"><rect class="blocklyIconShape" rx="4" ry="4" height="16" width="16"/><path class="blocklyIconSymbol" d="m4.203,7.296 0,1.368 -0.92,0.677 -0.11,0.41 0.9,1.559 0.41,0.11 1.043,-0.457 1.187,0.683 0.127,1.134 0.3,0.3 1.8,0 0.3,-0.299 0.127,-1.138 1.185,-0.682 1.046,0.458 0.409,-0.11 0.9,-1.559 -0.11,-0.41 -0.92,-0.677 0,-1.366 0.92,-0.677 0.11,-0.41 -0.9,-1.559 -0.409,-0.109 -1.046,0.458 -1.185,-0.682 -0.127,-1.138 -0.3,-0.299 -1.8,0 -0.3,0.3 -0.126,1.135 -1.187,0.682 -1.043,-0.457 -0.41,0.11 -0.899,1.559 0.108,0.409z"/><circle class="blocklyIconShape" r="2.7" cx="8" cy="8"/></g><g class="blocklyIconGroup" display="block" transform="translate(37,5)"><circle class="blocklyIconShape" r="8" cx="8" cy="8"/><path class="blocklyIconSymbol" d="m6.8,10h2c0.003,-0.617 0.271,-0.962 0.633,-1.266 2.875,-2.4050.607,-5.534 -3.765,-3.874v1.7c3.12,-1.657 3.698,0.118 2.336,1.25-1.201,0.998 -1.201,1.528 -1.204,2.19z"/><rect class="blocklyIconSymbol" x="6.8" y="10.78" height="2" width="2"/></g><text class="blocklyText" y="12.5" transform="translate(64,5)">pour</text><g class="blocklyEditableText" transform="translate(103.3414306640625,5)" style="cursor: text;"><rect rx="4" ry="4" x="-5" y="0" height="16" width="99.63487243652344"/><text class="blocklyText" y="12.5">prédire valeur</text></g><text class="blocklyText" y="12.5" transform="translate(202.97630310058594,5)">avec : valeur des neurones de la couche de sortie</text><text class="blocklyText" y="12.5" transform="translate(488.2159881591797,60)">retour</text><g data-id="E~2~Im19G2x+i*lS~1m|" class="blocklyDraggable" transform="translate(545.5123138427734,55)"><path class="blocklyPathDark" transform="translate(1,1)" fill="#844966" d="m 0,0 H 114.27340698242188 v 25 H 0 V 20 c 0,-10 -8,8 -8,-7.5 s 8,2.5 8,-7.5 z&#10;"/><path class="blocklyPath" fill="#a55b80" d="m 0,0 H 114.27340698242188 v 25 H 0 V 20 c 0,-10 -8,8 -8,-7.5 s 8,2.5 8,-7.5 z&#10;"/><path class="blocklyPathLight" stroke="#c08ca6" d="m 0.5,0.5 H 113.77340698242188 M 113.77340698242188,0.5 M 0.5,24.5 V 18.5 m -7.36,-0.5 q -1.52,-5.5 0,-11 m 7.36,1 V 0.5 H 1&#10;"/><g class="blocklyEditableText" style="cursor: default;" transform="translate(10,5)"><rect rx="4" ry="4" x="-5" y="0" height="16" width="104.27340698242188"/><text class="blocklyText" y="12.5" text-anchor="start" x="0">chiffrePrédit<tspan style="fill: rgb(165, 91, 128);"> ▾</tspan></text></g></g><g data-id="CP**rSy!=rtU_zz.cJ2;" class="blocklyDraggable" transform="translate(21,26)"><path class="blocklyPathDark" transform="translate(1,1)" fill="#844966" d="m 0,8 A 8,8 0 0,1 8,0 H 15 l 6,4 3,0 6,-4 H 178.1216278076172 v 5 c 0,10 -8,-8 -8,7.5 s 8,-2.5 8,7.5 v 5 H 29.5 l -6,4 -3,0 -6,-4 H 8 a 8,8 0 0,1 -8,-8 z&#10;"/><path class="blocklyPath" fill="#a55b80" d="m 0,8 A 8,8 0 0,1 8,0 H 15 l 6,4 3,0 6,-4 H 178.1216278076172 v 5 c 0,10 -8,-8 -8,7.5 s 8,-2.5 8,7.5 v 5 H 29.5 l -6,4 -3,0 -6,-4 H 8 a 8,8 0 0,1 -8,-8 z&#10;"/><path class="blocklyPathLight" stroke="#c08ca6" d="m 0.5,7.5 A 7.5,7.5 0 0,1 8,0.5 H 15 l 6,4 3,0 6,-4 H 177.6216278076172 M 177.6216278076172,0.5 M 173.1216278076172,19.3 l 3.68,-2.1 M 2.6966991411008934,22.303300858899107 A 7.5,7.5 0 0,1 0.5,17 V 8&#10;"/><text class="blocklyText" y="12.5" transform="translate(10,5)">fixer</text><g class="blocklyEditableText" style="cursor: default;" transform="translate(47.695037841796875,5)"><rect rx="4" ry="4" x="-5" y="0" height="16" width="104.27340698242188"/><text class="blocklyText" y="12.5" text-anchor="start" x="0">chiffrePrédit<tspan style="fill: rgb(165, 91, 128);"> ▾</tspan></text></g><text class="blocklyText" y="12.5" transform="translate(151.96844482421875,5)">à</text><g data-id="pEPs9ShFHFrldXvOQ.t*" class="blocklyDraggable" transform="translate(179.1216278076172,0)"><path class="blocklyPathDark" transform="translate(1,1)" fill="#495284" d="m 0,0 H 393.25396728515625 v 5 c 0,10 -8,-8 -8,7.5 s 8,-2.5 8,7.5 v 5 H 0 V 20 c 0,-10 -8,8 -8,-7.5 s 8,2.5 8,-7.5 z&#10;"/><path class="blocklyPath" fill="#5b67a5" d="m 0,0 H 393.25396728515625 v 5 c 0,10 -8,-8 -8,7.5 s 8,-2.5 8,7.5 v 5 H 0 V 20 c 0,-10 -8,8 -8,-7.5 s 8,2.5 8,-7.5 z&#10;"/><path class="blocklyPathLight" stroke="#8c95c0" d="m 0.5,0.5 H 392.75396728515625 M 392.75396728515625,0.5 M 388.25396728515625,19.3 l 3.68,-2.1 M 0.5,24.5 V 18.5 m -7.36,-0.5 q -1.52,-5.5 0,-11 m 7.36,1 V 0.5 H 1&#10;"/><g data-id="f[yB8/eCl.;:GwolDxRF" class="blocklyDraggable" transform="translate(394.25396728515625,0)"><path class="blocklyPathDark" transform="translate(1,1)" fill="#844966" d="m 0,0 H 316.6712646484375 v 25 H 0 V 20 c 0,-10 -8,8 -8,-7.5 s 8,2.5 8,-7.5 z&#10;"/><path class="blocklyPath" fill="#a55b80" d="m 0,0 H 316.6712646484375 v 25 H 0 V 20 c 0,-10 -8,8 -8,-7.5 s 8,2.5 8,-7.5 z&#10;"/><path class="blocklyPathLight" stroke="#c08ca6" d="m 0.5,0.5 H 316.1712646484375 M 316.1712646484375,0.5 M 0.5,24.5 V 18.5 m -7.36,-0.5 q -1.52,-5.5 0,-11 m 7.36,1 V 0.5 H 1&#10;"/><g class="blocklyEditableText" style="cursor: default;" transform="translate(10,5)"><rect rx="4" ry="4" x="-5" y="0" height="16" width="306.6712646484375"/><text class="blocklyText" y="12.5" text-anchor="start" x="0">valeur des neurones de la couche de sortie<tspan style="fill: rgb(165, 91, 128);"> ▾</tspan></text></g></g><text class="blocklyText" y="12.5" transform="translate(10,5)">Récupérer le chiffre avec la probabilité</text><g class="blocklyEditableText" style="cursor: default;" transform="translate(269.899658203125,5)"><rect rx="4" ry="4" x="-5" y="0" height="16" width="89.04794311523438"/><text class="blocklyText" y="12.5" text-anchor="start" x="0">maximale<tspan style="fill: rgb(91, 103, 165);"> ▾</tspan></text></g><text class="blocklyText" y="12.5" transform="translate(358.9476013183594,5)">de</text></g></g></g></g></svg>