<?xml version="1.0" encoding="utf-8"?>
<!-- Generator: Adobe Illustrator 22.1.0, SVG Export Plug-In . SVG Version: 6.00 Build 0)  -->
<svg version="1.1" id="Layer_1" xmlns="http://www.w3.org/2000/svg" xmlns:xlink="http://www.w3.org/1999/xlink" x="0px" y="0px"
	 viewBox="0 0 1280 1024" style="enable-background:new 0 0 1280 1024;" xml:space="preserve">
<style type="text/css">
	.st0{fill-rule:evenodd;clip-rule:evenodd;fill:#17E8FF;stroke:#000000;stroke-miterlimit:10;}
	.st1{fill:#FFFFFF;}
	.st2{font-family:'Calibri';}
	.st3{font-size:48px;}
	.st4{fill-rule:evenodd;clip-rule:evenodd;fill:#00C90A;stroke:#000000;stroke-miterlimit:10;}
	.st5{fill:none;stroke:#808080;stroke-width:5;stroke-miterlimit:10;stroke-dasharray:11.9497,11.9497;}
	.st6{fill-rule:evenodd;clip-rule:evenodd;fill:#FF0006;stroke:#000000;stroke-miterlimit:10;}
	.st7{fill:none;stroke:#808080;stroke-width:5;stroke-miterlimit:10;stroke-dasharray:11.9816,11.9816;}
	.st8{fill:#808080;}
</style>
<circle class="st0" cx="661" cy="494" r="50.5"/>
<text transform="matrix(1 0 0 1 649.8789 507)" class="st1 st2 st3">?</text>
<rect x="731.5" y="415.5" class="st4" width="101" height="101"/>
<g>
	<circle class="st5" cx="661.5" cy="494.5" r="213"/>
</g>
<polygon class="st6" points="477.3,678.5 418.9,779.7 535.8,779.7 "/>
<polygon class="st6" points="398.3,292.5 339.9,393.7 456.8,393.7 "/>
<g>
	<circle class="st7" cx="656.5" cy="494.5" r="389"/>
</g>
<rect x="944.5" y="70.5" class="st4" width="101" height="101"/>
<rect x="1015.5" y="794.5" class="st4" width="101" height="101"/>
<rect x="1116.5" y="309.5" class="st4" width="101" height="101"/>
<polygon class="st6" points="238.3,627.5 179.9,728.7 296.8,728.7 "/>
<polygon class="st6" points="162.3,364.5 103.9,465.7 220.8,465.7 "/>
<polygon class="st6" points="180.3,105.5 121.9,206.7 238.8,206.7 "/>
<polygon class="st6" points="138.3,882.5 79.9,983.7 196.8,983.7 "/>
<rect x="1134.5" y="488.5" class="st4" width="101" height="101"/>
<text transform="matrix(1 0 0 1 608.6064 272.478)" class="st8 st2 st3">K = 1</text>
<text transform="matrix(1 0 0 1 608.6064 97.478)" class="st8 st2 st3">K = 3</text>
</svg>
