<?xml version="1.0" encoding="utf-8"?>
<!-- Generator: Adobe Illustrator 22.1.0, SVG Export Plug-In . SVG Version: 6.00 Build 0)  -->
<svg version="1.1" xmlns="http://www.w3.org/2000/svg" xmlns:xlink="http://www.w3.org/1999/xlink" x="0px" y="0px"
	 viewBox="0 0 1280 1024" style="enable-background:new 0 0 1280 1024;" xml:space="preserve">
<style type="text/css">
	.st0{display:none;}
	.st1{display:inline;}
	.st2{fill:#F800FF;}
	.st3{fill:none;stroke:#000000;stroke-miterlimit:10;}
	.st4{fill:#FFFFFF;}
	.st5{font-family:'Century';}
	.st6{font-size:600px;}
	.st7{font-family:'BrushScriptMT';}
	.st8{font-size:502.3706px;}
	.st9{font-family:'Calibri';}
	.st10{font-size:48px;}
</style>
<g id="Layer_4" class="st0">
	<g class="st1">
		<rect x="0.5" y="-5.5" class="st2" width="1279" height="1029"/>
		<path d="M1279-5v1028H1V-5H1279 M1280-6H0v1030h1280V-6L1280-6z"/>
	</g>
</g>
<g id="Layer_2">
	<g>
		<line class="st3" x1="673.5" y1="253.5" x2="903.5" y2="81.5"/>
	</g>
	<g>
		<line class="st3" x1="673.5" y1="253.5" x2="903.5" y2="167.5"/>
	</g>
	<line class="st3" x1="903.5" y1="253.5" x2="673.5" y2="253.5"/>
	<line class="st3" x1="903.5" y1="339.5" x2="673.5" y2="253.5"/>
	<line class="st3" x1="903.5" y1="425.5" x2="673.5" y2="253.5"/>
	<line class="st3" x1="903.5" y1="511.5" x2="673.5" y2="253.5"/>
	<line class="st3" x1="903.5" y1="597.5" x2="673.5" y2="253.5"/>
	<line class="st3" x1="903.5" y1="683.5" x2="673.5" y2="253.5"/>
	<line class="st3" x1="903.5" y1="769.5" x2="673.5" y2="253.5"/>
	<line class="st3" x1="903.5" y1="855.5" x2="673.5" y2="253.5"/>
	<line class="st3" x1="903.5" y1="941.5" x2="673.5" y2="253.5"/>
	<g>
		<line class="st3" x1="672" y1="426.5" x2="902" y2="82.5"/>
	</g>
	<g>
		<line class="st3" x1="672" y1="426.5" x2="902" y2="168.5"/>
	</g>
	<line class="st3" x1="902" y1="254.5" x2="672" y2="426.5"/>
	<line class="st3" x1="902" y1="340.5" x2="672" y2="426.5"/>
	<line class="st3" x1="902" y1="426.5" x2="672" y2="426.5"/>
	<line class="st3" x1="902" y1="512.5" x2="672" y2="426.5"/>
	<line class="st3" x1="902" y1="598.5" x2="672" y2="426.5"/>
	<line class="st3" x1="902" y1="684.5" x2="672" y2="426.5"/>
	<line class="st3" x1="902" y1="770.5" x2="672" y2="426.5"/>
	<line class="st3" x1="902" y1="856.5" x2="672" y2="426.5"/>
	<line class="st3" x1="902" y1="942.5" x2="672" y2="426.5"/>
	<g>
		<line class="st3" x1="674" y1="597.5" x2="904" y2="83.5"/>
	</g>
	<g>
		<line class="st3" x1="674" y1="597.5" x2="904" y2="169.5"/>
	</g>
	<line class="st3" x1="904" y1="255.5" x2="674" y2="597.5"/>
	<line class="st3" x1="904" y1="341.5" x2="674" y2="597.5"/>
	<line class="st3" x1="904" y1="427.5" x2="674" y2="597.5"/>
	<line class="st3" x1="904" y1="513.5" x2="674" y2="597.5"/>
	<line class="st3" x1="904" y1="599.5" x2="674" y2="597.5"/>
	<line class="st3" x1="904" y1="685.5" x2="674" y2="597.5"/>
	<line class="st3" x1="904" y1="771.5" x2="674" y2="597.5"/>
	<line class="st3" x1="904" y1="857.5" x2="674" y2="597.5"/>
	<line class="st3" x1="904" y1="943.5" x2="674" y2="597.5"/>
	<g>
		<line class="st3" x1="672" y1="771.5" x2="902" y2="943.5"/>
	</g>
	<g>
		<line class="st3" x1="672" y1="771.5" x2="902" y2="857.5"/>
	</g>
	<line class="st3" x1="902" y1="771.5" x2="672" y2="771.5"/>
	<line class="st3" x1="902" y1="685.5" x2="672" y2="771.5"/>
	<line class="st3" x1="902" y1="599.5" x2="672" y2="771.5"/>
	<line class="st3" x1="902" y1="513.5" x2="672" y2="771.5"/>
	<line class="st3" x1="902" y1="427.5" x2="672" y2="771.5"/>
	<line class="st3" x1="902" y1="341.5" x2="672" y2="771.5"/>
	<line class="st3" x1="902" y1="255.5" x2="672" y2="771.5"/>
	<line class="st3" x1="902" y1="169.5" x2="672" y2="771.5"/>
	<line class="st3" x1="902" y1="83.5" x2="672" y2="771.5"/>
	<g>
		<line class="st3" x1="1167" y1="124.5" x2="902" y2="83.5"/>
	</g>
	<g>
		<line class="st3" x1="1167" y1="124.5" x2="902" y2="169.5"/>
	</g>
	<line class="st3" x1="902" y1="255.5" x2="1167" y2="124.5"/>
	<line class="st3" x1="902" y1="341.5" x2="1167" y2="124.5"/>
	<line class="st3" x1="902" y1="427.5" x2="1167" y2="124.5"/>
	<line class="st3" x1="902" y1="513.5" x2="1167" y2="124.5"/>
	<line class="st3" x1="902" y1="599.5" x2="1167" y2="124.5"/>
	<line class="st3" x1="902" y1="685.5" x2="1167" y2="124.5"/>
	<line class="st3" x1="902" y1="771.5" x2="1167" y2="124.5"/>
	<line class="st3" x1="902" y1="857.5" x2="1167" y2="124.5"/>
	<line class="st3" x1="902" y1="943.5" x2="1167" y2="124.5"/>
	<g>
		<line class="st3" x1="1167" y1="210.5" x2="904" y2="83.5"/>
	</g>
	<g>
		<line class="st3" x1="1167" y1="210.5" x2="904" y2="169.5"/>
	</g>
	<line class="st3" x1="904" y1="255.5" x2="1167" y2="210.5"/>
	<line class="st3" x1="904" y1="341.5" x2="1167" y2="210.5"/>
	<line class="st3" x1="904" y1="427.5" x2="1167" y2="210.5"/>
	<line class="st3" x1="904" y1="513.5" x2="1167" y2="210.5"/>
	<line class="st3" x1="904" y1="599.5" x2="1167" y2="210.5"/>
	<line class="st3" x1="904" y1="685.5" x2="1167" y2="210.5"/>
	<line class="st3" x1="904" y1="771.5" x2="1167" y2="210.5"/>
	<line class="st3" x1="904" y1="857.5" x2="1167" y2="210.5"/>
	<line class="st3" x1="904" y1="943.5" x2="1167" y2="210.5"/>
	<g>
		<line class="st3" x1="1167" y1="296.5" x2="910" y2="81.5"/>
	</g>
	<g>
		<line class="st3" x1="1167" y1="296.5" x2="910" y2="167.5"/>
	</g>
	<line class="st3" x1="910" y1="253.5" x2="1167" y2="296.5"/>
	<line class="st3" x1="910" y1="339.5" x2="1167" y2="296.5"/>
	<line class="st3" x1="910" y1="425.5" x2="1167" y2="296.5"/>
	<line class="st3" x1="910" y1="511.5" x2="1167" y2="296.5"/>
	<line class="st3" x1="910" y1="597.5" x2="1167" y2="296.5"/>
	<line class="st3" x1="910" y1="683.5" x2="1167" y2="296.5"/>
	<line class="st3" x1="910" y1="769.5" x2="1167" y2="296.5"/>
	<line class="st3" x1="910" y1="855.5" x2="1167" y2="296.5"/>
	<line class="st3" x1="910" y1="941.5" x2="1167" y2="296.5"/>
	<g>
		<line class="st3" x1="1167" y1="382.5" x2="904" y2="83.5"/>
	</g>
	<g>
		<line class="st3" x1="1167" y1="382.5" x2="904" y2="169.5"/>
	</g>
	<line class="st3" x1="904" y1="255.5" x2="1167" y2="382.5"/>
	<line class="st3" x1="904" y1="341.5" x2="1167" y2="382.5"/>
	<line class="st3" x1="904" y1="427.5" x2="1167" y2="382.5"/>
	<line class="st3" x1="904" y1="513.5" x2="1167" y2="382.5"/>
	<line class="st3" x1="904" y1="599.5" x2="1167" y2="382.5"/>
	<line class="st3" x1="904" y1="685.5" x2="1167" y2="382.5"/>
	<line class="st3" x1="904" y1="771.5" x2="1167" y2="382.5"/>
	<line class="st3" x1="904" y1="857.5" x2="1167" y2="382.5"/>
	<line class="st3" x1="904" y1="943.5" x2="1167" y2="382.5"/>
	<g>
		<line class="st3" x1="1167" y1="468.5" x2="904" y2="83.5"/>
	</g>
	<g>
		<line class="st3" x1="1167" y1="468.5" x2="904" y2="169.5"/>
	</g>
	<line class="st3" x1="904" y1="255.5" x2="1167" y2="468.5"/>
	<line class="st3" x1="904" y1="341.5" x2="1167" y2="468.5"/>
	<line class="st3" x1="904" y1="427.5" x2="1167" y2="468.5"/>
	<line class="st3" x1="904" y1="513.5" x2="1167" y2="468.5"/>
	<line class="st3" x1="904" y1="599.5" x2="1167" y2="468.5"/>
	<line class="st3" x1="904" y1="685.5" x2="1167" y2="468.5"/>
	<line class="st3" x1="904" y1="771.5" x2="1167" y2="468.5"/>
	<line class="st3" x1="904" y1="857.5" x2="1167" y2="468.5"/>
	<line class="st3" x1="904" y1="943.5" x2="1167" y2="468.5"/>
	<g>
		<line class="st3" x1="1167" y1="554.5" x2="904" y2="83.5"/>
	</g>
	<g>
		<line class="st3" x1="1167" y1="554.5" x2="904" y2="169.5"/>
	</g>
	<line class="st3" x1="904" y1="255.5" x2="1167" y2="554.5"/>
	<line class="st3" x1="904" y1="341.5" x2="1167" y2="554.5"/>
	<line class="st3" x1="904" y1="427.5" x2="1167" y2="554.5"/>
	<line class="st3" x1="904" y1="513.5" x2="1167" y2="554.5"/>
	<line class="st3" x1="904" y1="599.5" x2="1167" y2="554.5"/>
	<line class="st3" x1="904" y1="685.5" x2="1167" y2="554.5"/>
	<line class="st3" x1="904" y1="771.5" x2="1167" y2="554.5"/>
	<line class="st3" x1="904" y1="857.5" x2="1167" y2="554.5"/>
	<line class="st3" x1="904" y1="943.5" x2="1167" y2="554.5"/>
	<g>
		<line class="st3" x1="1167" y1="640.5" x2="903" y2="81.5"/>
	</g>
	<g>
		<line class="st3" x1="1167" y1="640.5" x2="903" y2="167.5"/>
	</g>
	<line class="st3" x1="903" y1="253.5" x2="1167" y2="640.5"/>
	<line class="st3" x1="903" y1="339.5" x2="1167" y2="640.5"/>
	<line class="st3" x1="903" y1="425.5" x2="1167" y2="640.5"/>
	<line class="st3" x1="903" y1="511.5" x2="1167" y2="640.5"/>
	<line class="st3" x1="903" y1="597.5" x2="1167" y2="640.5"/>
	<line class="st3" x1="903" y1="683.5" x2="1167" y2="640.5"/>
	<line class="st3" x1="903" y1="769.5" x2="1167" y2="640.5"/>
	<line class="st3" x1="903" y1="855.5" x2="1167" y2="640.5"/>
	<line class="st3" x1="903" y1="941.5" x2="1167" y2="640.5"/>
	<g>
		<line class="st3" x1="1167" y1="726.5" x2="904" y2="83.5"/>
	</g>
	<g>
		<line class="st3" x1="1167" y1="726.5" x2="904" y2="169.5"/>
	</g>
	<line class="st3" x1="904" y1="255.5" x2="1167" y2="726.5"/>
	<line class="st3" x1="904" y1="341.5" x2="1167" y2="726.5"/>
	<line class="st3" x1="904" y1="427.5" x2="1167" y2="726.5"/>
	<line class="st3" x1="904" y1="513.5" x2="1167" y2="726.5"/>
	<line class="st3" x1="904" y1="599.5" x2="1167" y2="726.5"/>
	<line class="st3" x1="904" y1="685.5" x2="1167" y2="726.5"/>
	<line class="st3" x1="904" y1="771.5" x2="1167" y2="726.5"/>
	<line class="st3" x1="904" y1="857.5" x2="1167" y2="726.5"/>
	<line class="st3" x1="904" y1="943.5" x2="1167" y2="726.5"/>
	<g>
		<line class="st3" x1="1167" y1="812.5" x2="904" y2="79.5"/>
	</g>
	<g>
		<line class="st3" x1="1167" y1="812.5" x2="904" y2="165.5"/>
	</g>
	<line class="st3" x1="904" y1="251.5" x2="1167" y2="812.5"/>
	<line class="st3" x1="904" y1="337.5" x2="1167" y2="812.5"/>
	<line class="st3" x1="904" y1="423.5" x2="1167" y2="812.5"/>
	<line class="st3" x1="904" y1="509.5" x2="1167" y2="812.5"/>
	<line class="st3" x1="904" y1="595.5" x2="1167" y2="812.5"/>
	<line class="st3" x1="904" y1="681.5" x2="1167" y2="812.5"/>
	<line class="st3" x1="904" y1="767.5" x2="1167" y2="812.5"/>
	<line class="st3" x1="904" y1="853.5" x2="1167" y2="812.5"/>
	<line class="st3" x1="904" y1="939.5" x2="1167" y2="812.5"/>
	<g>
		<line class="st3" x1="1167" y1="898.5" x2="903" y2="81.5"/>
	</g>
	<g>
		<line class="st3" x1="1167" y1="898.5" x2="903" y2="167.5"/>
	</g>
	<line class="st3" x1="903" y1="253.5" x2="1167" y2="898.5"/>
	<line class="st3" x1="903" y1="339.5" x2="1167" y2="898.5"/>
	<line class="st3" x1="903" y1="425.5" x2="1167" y2="898.5"/>
	<line class="st3" x1="903" y1="511.5" x2="1167" y2="898.5"/>
	<line class="st3" x1="903" y1="597.5" x2="1167" y2="898.5"/>
	<line class="st3" x1="903" y1="683.5" x2="1167" y2="898.5"/>
	<line class="st3" x1="903" y1="769.5" x2="1167" y2="898.5"/>
	<line class="st3" x1="903" y1="855.5" x2="1167" y2="898.5"/>
	<line class="st3" x1="903" y1="941.5" x2="1167" y2="898.5"/>
</g>
<g id="Layer_1">
	<g>
		<circle class="st4" cx="903.5" cy="81.5" r="21"/>
		<path d="M903.5,61c11.3,0,20.5,9.2,20.5,20.5s-9.2,20.5-20.5,20.5S883,92.8,883,81.5S892.2,61,903.5,61 M903.5,60
			c-11.9,0-21.5,9.6-21.5,21.5s9.6,21.5,21.5,21.5S925,93.4,925,81.5S915.4,60,903.5,60L903.5,60z"/>
	</g>
	<g>
		<circle class="st4" cx="903.5" cy="511.5" r="21"/>
		<path d="M903.5,491c11.3,0,20.5,9.2,20.5,20.5c0,11.3-9.2,20.5-20.5,20.5s-20.5-9.2-20.5-20.5C883,500.2,892.2,491,903.5,491
			 M903.5,490c-11.9,0-21.5,9.6-21.5,21.5c0,11.9,9.6,21.5,21.5,21.5s21.5-9.6,21.5-21.5C925,499.6,915.4,490,903.5,490L903.5,490z"
			/>
	</g>
	<g>
		<circle class="st4" cx="903.5" cy="167.5" r="21"/>
		<path d="M903.5,147c11.3,0,20.5,9.2,20.5,20.5s-9.2,20.5-20.5,20.5s-20.5-9.2-20.5-20.5S892.2,147,903.5,147 M903.5,146
			c-11.9,0-21.5,9.6-21.5,21.5s9.6,21.5,21.5,21.5s21.5-9.6,21.5-21.5S915.4,146,903.5,146L903.5,146z"/>
	</g>
	<g>
		<circle class="st4" cx="903.5" cy="339.5" r="21"/>
		<path d="M903.5,319c11.3,0,20.5,9.2,20.5,20.5s-9.2,20.5-20.5,20.5s-20.5-9.2-20.5-20.5S892.2,319,903.5,319 M903.5,318
			c-11.9,0-21.5,9.6-21.5,21.5s9.6,21.5,21.5,21.5s21.5-9.6,21.5-21.5S915.4,318,903.5,318L903.5,318z"/>
	</g>
	<g>
		<circle class="st4" cx="903.5" cy="597.5" r="21"/>
		<path d="M903.5,577c11.3,0,20.5,9.2,20.5,20.5s-9.2,20.5-20.5,20.5s-20.5-9.2-20.5-20.5S892.2,577,903.5,577 M903.5,576
			c-11.9,0-21.5,9.6-21.5,21.5s9.6,21.5,21.5,21.5s21.5-9.6,21.5-21.5S915.4,576,903.5,576L903.5,576z"/>
	</g>
	<g>
		<circle class="st4" cx="903.5" cy="425.5" r="21"/>
		<path d="M903.5,405c11.3,0,20.5,9.2,20.5,20.5s-9.2,20.5-20.5,20.5s-20.5-9.2-20.5-20.5S892.2,405,903.5,405 M903.5,404
			c-11.9,0-21.5,9.6-21.5,21.5s9.6,21.5,21.5,21.5s21.5-9.6,21.5-21.5S915.4,404,903.5,404L903.5,404z"/>
	</g>
	<g>
		<circle class="st4" cx="903.5" cy="253.5" r="21"/>
		<path d="M903.5,233c11.3,0,20.5,9.2,20.5,20.5s-9.2,20.5-20.5,20.5s-20.5-9.2-20.5-20.5S892.2,233,903.5,233 M903.5,232
			c-11.9,0-21.5,9.6-21.5,21.5s9.6,21.5,21.5,21.5s21.5-9.6,21.5-21.5S915.4,232,903.5,232L903.5,232z"/>
	</g>
	<g>
		<circle class="st4" cx="903.5" cy="683.5" r="21"/>
		<path d="M903.5,663c11.3,0,20.5,9.2,20.5,20.5s-9.2,20.5-20.5,20.5s-20.5-9.2-20.5-20.5S892.2,663,903.5,663 M903.5,662
			c-11.9,0-21.5,9.6-21.5,21.5s9.6,21.5,21.5,21.5s21.5-9.6,21.5-21.5S915.4,662,903.5,662L903.5,662z"/>
	</g>
	<g>
		<circle class="st4" cx="903.5" cy="769.5" r="21"/>
		<path d="M903.5,749c11.3,0,20.5,9.2,20.5,20.5s-9.2,20.5-20.5,20.5s-20.5-9.2-20.5-20.5S892.2,749,903.5,749 M903.5,748
			c-11.9,0-21.5,9.6-21.5,21.5s9.6,21.5,21.5,21.5s21.5-9.6,21.5-21.5S915.4,748,903.5,748L903.5,748z"/>
	</g>
	<g>
		<circle class="st4" cx="903.5" cy="941.5" r="21"/>
		<path d="M903.5,921c11.3,0,20.5,9.2,20.5,20.5s-9.2,20.5-20.5,20.5s-20.5-9.2-20.5-20.5S892.2,921,903.5,921 M903.5,920
			c-11.9,0-21.5,9.6-21.5,21.5s9.6,21.5,21.5,21.5s21.5-9.6,21.5-21.5S915.4,920,903.5,920L903.5,920z"/>
	</g>
	<g>
		<circle class="st4" cx="903.5" cy="855.5" r="21"/>
		<path d="M903.5,835c11.3,0,20.5,9.2,20.5,20.5s-9.2,20.5-20.5,20.5s-20.5-9.2-20.5-20.5S892.2,835,903.5,835 M903.5,834
			c-11.9,0-21.5,9.6-21.5,21.5s9.6,21.5,21.5,21.5s21.5-9.6,21.5-21.5S915.4,834,903.5,834L903.5,834z"/>
	</g>
	<g>
		<circle class="st4" cx="1167.5" cy="124.5" r="21"/>
		<path d="M1167.5,104c11.3,0,20.5,9.2,20.5,20.5s-9.2,20.5-20.5,20.5s-20.5-9.2-20.5-20.5S1156.2,104,1167.5,104 M1167.5,103
			c-11.9,0-21.5,9.6-21.5,21.5s9.6,21.5,21.5,21.5s21.5-9.6,21.5-21.5S1179.4,103,1167.5,103L1167.5,103z"/>
	</g>
	<g>
		<circle class="st4" cx="1167.5" cy="554.5" r="21"/>
		<path d="M1167.5,534c11.3,0,20.5,9.2,20.5,20.5s-9.2,20.5-20.5,20.5s-20.5-9.2-20.5-20.5S1156.2,534,1167.5,534 M1167.5,533
			c-11.9,0-21.5,9.6-21.5,21.5s9.6,21.5,21.5,21.5s21.5-9.6,21.5-21.5S1179.4,533,1167.5,533L1167.5,533z"/>
	</g>
	<g>
		<circle class="st4" cx="1167.5" cy="210.5" r="21"/>
		<path d="M1167.5,190c11.3,0,20.5,9.2,20.5,20.5s-9.2,20.5-20.5,20.5s-20.5-9.2-20.5-20.5S1156.2,190,1167.5,190 M1167.5,189
			c-11.9,0-21.5,9.6-21.5,21.5s9.6,21.5,21.5,21.5s21.5-9.6,21.5-21.5S1179.4,189,1167.5,189L1167.5,189z"/>
	</g>
	<g>
		<circle class="st4" cx="1167.5" cy="382.5" r="21"/>
		<path d="M1167.5,362c11.3,0,20.5,9.2,20.5,20.5s-9.2,20.5-20.5,20.5s-20.5-9.2-20.5-20.5S1156.2,362,1167.5,362 M1167.5,361
			c-11.9,0-21.5,9.6-21.5,21.5s9.6,21.5,21.5,21.5s21.5-9.6,21.5-21.5S1179.4,361,1167.5,361L1167.5,361z"/>
	</g>
	<g>
		<circle class="st4" cx="1167.5" cy="640.5" r="21"/>
		<path d="M1167.5,620c11.3,0,20.5,9.2,20.5,20.5s-9.2,20.5-20.5,20.5s-20.5-9.2-20.5-20.5S1156.2,620,1167.5,620 M1167.5,619
			c-11.9,0-21.5,9.6-21.5,21.5s9.6,21.5,21.5,21.5s21.5-9.6,21.5-21.5S1179.4,619,1167.5,619L1167.5,619z"/>
	</g>
	<g>
		<circle class="st4" cx="1167.5" cy="468.5" r="21"/>
		<path d="M1167.5,448c11.3,0,20.5,9.2,20.5,20.5s-9.2,20.5-20.5,20.5s-20.5-9.2-20.5-20.5S1156.2,448,1167.5,448 M1167.5,447
			c-11.9,0-21.5,9.6-21.5,21.5s9.6,21.5,21.5,21.5s21.5-9.6,21.5-21.5S1179.4,447,1167.5,447L1167.5,447z"/>
	</g>
	<g>
		<circle class="st4" cx="1167.5" cy="296.5" r="21"/>
		<path d="M1167.5,276c11.3,0,20.5,9.2,20.5,20.5s-9.2,20.5-20.5,20.5s-20.5-9.2-20.5-20.5S1156.2,276,1167.5,276 M1167.5,275
			c-11.9,0-21.5,9.6-21.5,21.5s9.6,21.5,21.5,21.5s21.5-9.6,21.5-21.5S1179.4,275,1167.5,275L1167.5,275z"/>
	</g>
	<g>
		<circle class="st4" cx="1167.5" cy="726.5" r="21"/>
		<path d="M1167.5,706c11.3,0,20.5,9.2,20.5,20.5s-9.2,20.5-20.5,20.5s-20.5-9.2-20.5-20.5S1156.2,706,1167.5,706 M1167.5,705
			c-11.9,0-21.5,9.6-21.5,21.5s9.6,21.5,21.5,21.5s21.5-9.6,21.5-21.5S1179.4,705,1167.5,705L1167.5,705z"/>
	</g>
	<g>
		<circle class="st4" cx="1167.5" cy="812.5" r="21"/>
		<path d="M1167.5,792c11.3,0,20.5,9.2,20.5,20.5s-9.2,20.5-20.5,20.5s-20.5-9.2-20.5-20.5S1156.2,792,1167.5,792 M1167.5,791
			c-11.9,0-21.5,9.6-21.5,21.5s9.6,21.5,21.5,21.5s21.5-9.6,21.5-21.5S1179.4,791,1167.5,791L1167.5,791z"/>
	</g>
	<g>
		<circle class="st4" cx="1167.5" cy="898.5" r="21"/>
		<path d="M1167.5,878c11.3,0,20.5,9.2,20.5,20.5s-9.2,20.5-20.5,20.5s-20.5-9.2-20.5-20.5S1156.2,878,1167.5,878 M1167.5,877
			c-11.9,0-21.5,9.6-21.5,21.5s9.6,21.5,21.5,21.5s21.5-9.6,21.5-21.5S1179.4,877,1167.5,877L1167.5,877z"/>
	</g>
	<g>
		<circle class="st4" cx="673.5" cy="253.5" r="21"/>
		<path d="M673.5,233c11.3,0,20.5,9.2,20.5,20.5s-9.2,20.5-20.5,20.5s-20.5-9.2-20.5-20.5S662.2,233,673.5,233 M673.5,232
			c-11.9,0-21.5,9.6-21.5,21.5s9.6,21.5,21.5,21.5s21.5-9.6,21.5-21.5S685.4,232,673.5,232L673.5,232z"/>
	</g>
	<g>
		<circle class="st4" cx="673.5" cy="425.5" r="21"/>
		<path d="M673.5,405c11.3,0,20.5,9.2,20.5,20.5c0,11.3-9.2,20.5-20.5,20.5s-20.5-9.2-20.5-20.5C653,414.2,662.2,405,673.5,405
			 M673.5,404c-11.9,0-21.5,9.6-21.5,21.5c0,11.9,9.6,21.5,21.5,21.5s21.5-9.6,21.5-21.5C695,413.6,685.4,404,673.5,404L673.5,404z"
			/>
	</g>
	<g>
		<circle class="st4" cx="673.5" cy="597.5" r="21"/>
		<path d="M673.5,577c11.3,0,20.5,9.2,20.5,20.5s-9.2,20.5-20.5,20.5s-20.5-9.2-20.5-20.5S662.2,577,673.5,577 M673.5,576
			c-11.9,0-21.5,9.6-21.5,21.5s9.6,21.5,21.5,21.5s21.5-9.6,21.5-21.5S685.4,576,673.5,576L673.5,576z"/>
	</g>
	<g>
		<circle class="st4" cx="673.5" cy="769.5" r="21"/>
		<path d="M673.5,749c11.3,0,20.5,9.2,20.5,20.5s-9.2,20.5-20.5,20.5s-20.5-9.2-20.5-20.5S662.2,749,673.5,749 M673.5,748
			c-11.9,0-21.5,9.6-21.5,21.5s9.6,21.5,21.5,21.5s21.5-9.6,21.5-21.5S685.4,748,673.5,748L673.5,748z"/>
	</g>
	<g>
		<g id="XMLID_1_">
			<g>
				<rect x="341.4" y="428.8" width="13.8" height="13.8"/>
				<rect x="327.6" y="635.7" width="13.8" height="13.8"/>
				<rect x="327.6" y="622" width="13.8" height="13.8"/>
				<rect x="327.6" y="608.2" width="13.8" height="13.8"/>
				<rect x="327.6" y="594.4" width="13.8" height="13.8"/>
				<rect x="327.6" y="456.4" width="13.8" height="13.8"/>
				<rect x="327.6" y="442.6" width="13.8" height="13.8"/>
				<rect x="327.6" y="428.8" width="13.8" height="13.8"/>
				<rect x="327.6" y="415" width="13.8" height="13.8"/>
				<rect x="327.6" y="401.3" width="13.8" height="13.8"/>
				<rect x="313.8" y="649.5" width="13.8" height="13.8"/>
				<rect x="313.8" y="635.7" width="13.8" height="13.8"/>
				<rect x="313.8" y="594.4" width="13.8" height="13.8"/>
				<rect x="313.8" y="580.6" width="13.8" height="13.8"/>
				<rect x="313.8" y="566.8" width="13.8" height="13.8"/>
				<rect x="313.8" y="484" width="13.8" height="13.8"/>
				<rect x="313.8" y="470.2" width="13.8" height="13.8"/>
				<rect x="313.8" y="456.4" width="13.8" height="13.8"/>
				<rect x="313.8" y="415" width="13.8" height="13.8"/>
				<rect x="313.8" y="401.3" width="13.8" height="13.8"/>
				<rect x="313.8" y="387.5" width="13.8" height="13.8"/>
				<rect x="300" y="649.5" width="13.8" height="13.8"/>
				<rect x="300" y="566.8" width="13.8" height="13.8"/>
				<rect x="300" y="511.6" width="13.8" height="13.8"/>
				<rect x="300" y="497.8" width="13.8" height="13.8"/>
				<rect x="300" y="484" width="13.8" height="13.8"/>
				<rect x="300" y="387.5" width="13.8" height="13.8"/>
				<rect x="286.2" y="663.3" width="13.8" height="13.8"/>
				<rect x="286.2" y="649.5" width="13.8" height="13.8"/>
				<rect x="286.2" y="566.8" width="13.8" height="13.8"/>
				<rect x="286.2" y="553" width="13.8" height="13.8"/>
				<rect x="286.2" y="511.6" width="13.8" height="13.8"/>
				<rect x="286.2" y="497.8" width="13.8" height="13.8"/>
				<rect x="286.2" y="387.5" width="13.8" height="13.8"/>
				<rect x="286.2" y="373.7" width="13.8" height="13.8"/>
				<rect x="272.4" y="677.1" width="13.8" height="13.8"/>
				<rect x="272.4" y="663.3" width="13.8" height="13.8"/>
				<rect x="272.4" y="553" width="13.8" height="13.8"/>
				<rect x="272.4" y="539.2" width="13.8" height="13.8"/>
				<rect x="272.4" y="511.6" width="13.8" height="13.8"/>
				<rect x="272.4" y="373.7" width="13.8" height="13.8"/>
				<rect x="258.6" y="677.1" width="13.8" height="13.8"/>
				<rect x="258.6" y="553" width="13.8" height="13.8"/>
				<rect x="258.6" y="539.2" width="13.8" height="13.8"/>
				<rect x="258.6" y="525.4" width="13.8" height="13.8"/>
				<rect x="258.6" y="511.6" width="13.8" height="13.8"/>
				<rect x="258.6" y="387.5" width="13.8" height="13.8"/>
				<rect x="258.6" y="373.7" width="13.8" height="13.8"/>
				<rect x="244.8" y="677.1" width="13.8" height="13.8"/>
				<rect x="244.8" y="539.2" width="13.8" height="13.8"/>
				<rect x="244.8" y="387.5" width="13.8" height="13.8"/>
				<rect x="231" y="677.1" width="13.8" height="13.8"/>
				<rect x="231" y="539.2" width="13.8" height="13.8"/>
				<rect x="231" y="387.5" width="13.8" height="13.8"/>
				<rect x="217.2" y="677.1" width="13.8" height="13.8"/>
				<rect x="217.2" y="663.3" width="13.8" height="13.8"/>
				<rect x="217.2" y="553" width="13.8" height="13.8"/>
				<rect x="217.2" y="539.2" width="13.8" height="13.8"/>
				<rect x="217.2" y="401.3" width="13.8" height="13.8"/>
				<rect x="217.2" y="387.5" width="13.8" height="13.8"/>
				<rect x="203.4" y="677.1" width="13.8" height="13.8"/>
				<rect x="203.4" y="663.3" width="13.8" height="13.8"/>
				<rect x="203.4" y="553" width="13.8" height="13.8"/>
				<rect x="203.4" y="539.2" width="13.8" height="13.8"/>
				<rect x="203.4" y="401.3" width="13.8" height="13.8"/>
				<rect x="203.4" y="387.5" width="13.8" height="13.8"/>
				<rect x="189.6" y="663.3" width="13.8" height="13.8"/>
				<rect x="189.6" y="580.6" width="13.8" height="13.8"/>
				<rect x="189.6" y="566.8" width="13.8" height="13.8"/>
				<rect x="189.6" y="553" width="13.8" height="13.8"/>
				<rect x="189.6" y="539.2" width="13.8" height="13.8"/>
				<rect x="189.6" y="401.3" width="13.8" height="13.8"/>
				<rect x="189.6" y="387.5" width="13.8" height="13.8"/>
				<rect x="175.8" y="649.5" width="13.8" height="13.8"/>
				<rect x="175.8" y="635.7" width="13.8" height="13.8"/>
				<rect x="175.8" y="594.4" width="13.8" height="13.8"/>
				<rect x="175.8" y="580.6" width="13.8" height="13.8"/>
				<rect x="175.8" y="566.8" width="13.8" height="13.8"/>
				<rect x="175.8" y="539.2" width="13.8" height="13.8"/>
				<rect x="175.8" y="525.4" width="13.8" height="13.8"/>
				<rect x="175.8" y="511.6" width="13.8" height="13.8"/>
				<rect x="175.8" y="415" width="13.8" height="13.8"/>
				<rect x="175.8" y="401.3" width="13.8" height="13.8"/>
				<rect x="162.1" y="649.5" width="13.8" height="13.8"/>
				<rect x="162.1" y="635.7" width="13.8" height="13.8"/>
				<rect x="162.1" y="622" width="13.8" height="13.8"/>
				<rect x="162.1" y="608.2" width="13.8" height="13.8"/>
				<rect x="162.1" y="594.4" width="13.8" height="13.8"/>
				<rect x="162.1" y="511.6" width="13.8" height="13.8"/>
				<rect x="162.1" y="497.8" width="13.8" height="13.8"/>
				<rect x="162.1" y="428.8" width="13.8" height="13.8"/>
				<rect x="162.1" y="415" width="13.8" height="13.8"/>
				<rect x="148.3" y="622" width="13.8" height="13.8"/>
				<rect x="148.3" y="608.2" width="13.8" height="13.8"/>
				<rect x="148.3" y="497.8" width="13.8" height="13.8"/>
				<rect x="148.3" y="484" width="13.8" height="13.8"/>
				<rect x="148.3" y="442.6" width="13.8" height="13.8"/>
				<rect x="148.3" y="428.8" width="13.8" height="13.8"/>
				<rect x="134.5" y="484" width="13.8" height="13.8"/>
				<rect x="134.5" y="470.2" width="13.8" height="13.8"/>
				<rect x="134.5" y="456.4" width="13.8" height="13.8"/>
				<rect x="134.5" y="442.6" width="13.8" height="13.8"/>
			</g>
			<g>
				<polygon class="st3" points="65.5,332.3 65.5,318.5 79.3,318.5 93.1,318.5 106.9,318.5 120.7,318.5 134.5,318.5 148.3,318.5 
					162.1,318.5 175.8,318.5 189.6,318.5 203.4,318.5 217.2,318.5 231,318.5 244.8,318.5 258.6,318.5 272.4,318.5 286.2,318.5 
					300,318.5 313.8,318.5 327.6,318.5 341.4,318.5 355.2,318.5 369,318.5 382.7,318.5 396.5,318.5 410.3,318.5 424.1,318.5 
					437.9,318.5 451.7,318.5 465.5,318.5 465.5,332.3 465.5,346.1 465.5,359.9 465.5,373.7 465.5,387.5 465.5,401.3 465.5,415 
					465.5,428.8 465.5,442.6 465.5,456.4 465.5,470.2 465.5,484 465.5,497.8 465.5,511.6 465.5,525.4 465.5,539.2 465.5,553 
					465.5,566.8 465.5,580.6 465.5,594.4 465.5,608.2 465.5,622 465.5,635.7 465.5,649.5 465.5,663.3 465.5,677.1 465.5,690.9 
					465.5,704.7 465.5,718.5 451.7,718.5 437.9,718.5 424.1,718.5 410.3,718.5 396.5,718.5 382.7,718.5 369,718.5 355.2,718.5 
					341.4,718.5 327.6,718.5 313.8,718.5 300,718.5 286.2,718.5 272.4,718.5 258.6,718.5 244.8,718.5 231,718.5 217.2,718.5 
					203.4,718.5 189.6,718.5 175.8,718.5 162.1,718.5 148.3,718.5 134.5,718.5 120.7,718.5 106.9,718.5 93.1,718.5 79.3,718.5 
					65.5,718.5 65.5,704.7 65.5,690.9 65.5,677.1 65.5,663.3 65.5,649.5 65.5,635.7 65.5,622 65.5,608.2 65.5,594.4 65.5,580.6 
					65.5,566.8 65.5,553 65.5,539.2 65.5,525.4 65.5,511.6 65.5,497.8 65.5,484 65.5,470.2 65.5,456.4 65.5,442.6 65.5,428.8 
					65.5,415 65.5,401.3 65.5,387.5 65.5,373.7 65.5,359.9 65.5,346.1 				"/>
				<polyline class="st3" points="65.5,704.7 79.3,704.7 93.1,704.7 106.9,704.7 120.7,704.7 134.5,704.7 148.3,704.7 162.1,704.7 
					175.8,704.7 189.6,704.7 203.4,704.7 217.2,704.7 231,704.7 244.8,704.7 258.6,704.7 272.4,704.7 286.2,704.7 300,704.7 
					313.8,704.7 327.6,704.7 341.4,704.7 355.2,704.7 369,704.7 382.7,704.7 396.5,704.7 410.3,704.7 424.1,704.7 437.9,704.7 
					451.7,704.7 465.5,704.7 				"/>
				<polyline class="st3" points="65.5,690.9 79.3,690.9 93.1,690.9 106.9,690.9 120.7,690.9 134.5,690.9 148.3,690.9 162.1,690.9 
					175.8,690.9 189.6,690.9 203.4,690.9 217.2,690.9 231,690.9 244.8,690.9 258.6,690.9 272.4,690.9 286.2,690.9 300,690.9 
					313.8,690.9 327.6,690.9 341.4,690.9 355.2,690.9 369,690.9 382.7,690.9 396.5,690.9 410.3,690.9 424.1,690.9 437.9,690.9 
					451.7,690.9 465.5,690.9 				"/>
				<polyline class="st3" points="65.5,677.1 79.3,677.1 93.1,677.1 106.9,677.1 120.7,677.1 134.5,677.1 148.3,677.1 162.1,677.1 
					175.8,677.1 189.6,677.1 203.4,677.1 217.2,677.1 231,677.1 244.8,677.1 258.6,677.1 272.4,677.1 286.2,677.1 300,677.1 
					313.8,677.1 327.6,677.1 341.4,677.1 355.2,677.1 369,677.1 382.7,677.1 396.5,677.1 410.3,677.1 424.1,677.1 437.9,677.1 
					451.7,677.1 465.5,677.1 				"/>
				<polyline class="st3" points="65.5,663.3 79.3,663.3 93.1,663.3 106.9,663.3 120.7,663.3 134.5,663.3 148.3,663.3 162.1,663.3 
					175.8,663.3 189.6,663.3 203.4,663.3 217.2,663.3 231,663.3 244.8,663.3 258.6,663.3 272.4,663.3 286.2,663.3 300,663.3 
					313.8,663.3 327.6,663.3 341.4,663.3 355.2,663.3 369,663.3 382.7,663.3 396.5,663.3 410.3,663.3 424.1,663.3 437.9,663.3 
					451.7,663.3 465.5,663.3 				"/>
				<polyline class="st3" points="65.5,649.5 79.3,649.5 93.1,649.5 106.9,649.5 120.7,649.5 134.5,649.5 148.3,649.5 162.1,649.5 
					175.8,649.5 189.6,649.5 203.4,649.5 217.2,649.5 231,649.5 244.8,649.5 258.6,649.5 272.4,649.5 286.2,649.5 300,649.5 
					313.8,649.5 327.6,649.5 341.4,649.5 355.2,649.5 369,649.5 382.7,649.5 396.5,649.5 410.3,649.5 424.1,649.5 437.9,649.5 
					451.7,649.5 465.5,649.5 				"/>
				<polyline class="st3" points="65.5,635.7 79.3,635.7 93.1,635.7 106.9,635.7 120.7,635.7 134.5,635.7 148.3,635.7 162.1,635.7 
					175.8,635.7 189.6,635.7 203.4,635.7 217.2,635.7 231,635.7 244.8,635.7 258.6,635.7 272.4,635.7 286.2,635.7 300,635.7 
					313.8,635.7 327.6,635.7 341.4,635.7 355.2,635.7 369,635.7 382.7,635.7 396.5,635.7 410.3,635.7 424.1,635.7 437.9,635.7 
					451.7,635.7 465.5,635.7 				"/>
				<polyline class="st3" points="65.5,622 79.3,622 93.1,622 106.9,622 120.7,622 134.5,622 148.3,622 162.1,622 175.8,622 
					189.6,622 203.4,622 217.2,622 231,622 244.8,622 258.6,622 272.4,622 286.2,622 300,622 313.8,622 327.6,622 341.4,622 
					355.2,622 369,622 382.7,622 396.5,622 410.3,622 424.1,622 437.9,622 451.7,622 465.5,622 				"/>
				<polyline class="st3" points="65.5,608.2 79.3,608.2 93.1,608.2 106.9,608.2 120.7,608.2 134.5,608.2 148.3,608.2 162.1,608.2 
					175.8,608.2 189.6,608.2 203.4,608.2 217.2,608.2 231,608.2 244.8,608.2 258.6,608.2 272.4,608.2 286.2,608.2 300,608.2 
					313.8,608.2 327.6,608.2 341.4,608.2 355.2,608.2 369,608.2 382.7,608.2 396.5,608.2 410.3,608.2 424.1,608.2 437.9,608.2 
					451.7,608.2 465.5,608.2 				"/>
				<polyline class="st3" points="65.5,594.4 79.3,594.4 93.1,594.4 106.9,594.4 120.7,594.4 134.5,594.4 148.3,594.4 162.1,594.4 
					175.8,594.4 189.6,594.4 203.4,594.4 217.2,594.4 231,594.4 244.8,594.4 258.6,594.4 272.4,594.4 286.2,594.4 300,594.4 
					313.8,594.4 327.6,594.4 341.4,594.4 355.2,594.4 369,594.4 382.7,594.4 396.5,594.4 410.3,594.4 424.1,594.4 437.9,594.4 
					451.7,594.4 465.5,594.4 				"/>
				<polyline class="st3" points="65.5,580.6 79.3,580.6 93.1,580.6 106.9,580.6 120.7,580.6 134.5,580.6 148.3,580.6 162.1,580.6 
					175.8,580.6 189.6,580.6 203.4,580.6 217.2,580.6 231,580.6 244.8,580.6 258.6,580.6 272.4,580.6 286.2,580.6 300,580.6 
					313.8,580.6 327.6,580.6 341.4,580.6 355.2,580.6 369,580.6 382.7,580.6 396.5,580.6 410.3,580.6 424.1,580.6 437.9,580.6 
					451.7,580.6 465.5,580.6 				"/>
				<polyline class="st3" points="65.5,566.8 79.3,566.8 93.1,566.8 106.9,566.8 120.7,566.8 134.5,566.8 148.3,566.8 162.1,566.8 
					175.8,566.8 189.6,566.8 203.4,566.8 217.2,566.8 231,566.8 244.8,566.8 258.6,566.8 272.4,566.8 286.2,566.8 300,566.8 
					313.8,566.8 327.6,566.8 341.4,566.8 355.2,566.8 369,566.8 382.7,566.8 396.5,566.8 410.3,566.8 424.1,566.8 437.9,566.8 
					451.7,566.8 465.5,566.8 				"/>
				<polyline class="st3" points="65.5,553 79.3,553 93.1,553 106.9,553 120.7,553 134.5,553 148.3,553 162.1,553 175.8,553 
					189.6,553 203.4,553 217.2,553 231,553 244.8,553 258.6,553 272.4,553 286.2,553 300,553 313.8,553 327.6,553 341.4,553 
					355.2,553 369,553 382.7,553 396.5,553 410.3,553 424.1,553 437.9,553 451.7,553 465.5,553 				"/>
				<polyline class="st3" points="65.5,539.2 79.3,539.2 93.1,539.2 106.9,539.2 120.7,539.2 134.5,539.2 148.3,539.2 162.1,539.2 
					175.8,539.2 189.6,539.2 203.4,539.2 217.2,539.2 231,539.2 244.8,539.2 258.6,539.2 272.4,539.2 286.2,539.2 300,539.2 
					313.8,539.2 327.6,539.2 341.4,539.2 355.2,539.2 369,539.2 382.7,539.2 396.5,539.2 410.3,539.2 424.1,539.2 437.9,539.2 
					451.7,539.2 465.5,539.2 				"/>
				<polyline class="st3" points="65.5,525.4 79.3,525.4 93.1,525.4 106.9,525.4 120.7,525.4 134.5,525.4 148.3,525.4 162.1,525.4 
					175.8,525.4 189.6,525.4 203.4,525.4 217.2,525.4 231,525.4 244.8,525.4 258.6,525.4 272.4,525.4 286.2,525.4 300,525.4 
					313.8,525.4 327.6,525.4 341.4,525.4 355.2,525.4 369,525.4 382.7,525.4 396.5,525.4 410.3,525.4 424.1,525.4 437.9,525.4 
					451.7,525.4 465.5,525.4 				"/>
				<polyline class="st3" points="65.5,511.6 79.3,511.6 93.1,511.6 106.9,511.6 120.7,511.6 134.5,511.6 148.3,511.6 162.1,511.6 
					175.8,511.6 189.6,511.6 203.4,511.6 217.2,511.6 231,511.6 244.8,511.6 258.6,511.6 272.4,511.6 286.2,511.6 300,511.6 
					313.8,511.6 327.6,511.6 341.4,511.6 355.2,511.6 369,511.6 382.7,511.6 396.5,511.6 410.3,511.6 424.1,511.6 437.9,511.6 
					451.7,511.6 465.5,511.6 				"/>
				<polyline class="st3" points="65.5,497.8 79.3,497.8 93.1,497.8 106.9,497.8 120.7,497.8 134.5,497.8 148.3,497.8 162.1,497.8 
					175.8,497.8 189.6,497.8 203.4,497.8 217.2,497.8 231,497.8 244.8,497.8 258.6,497.8 272.4,497.8 286.2,497.8 300,497.8 
					313.8,497.8 327.6,497.8 341.4,497.8 355.2,497.8 369,497.8 382.7,497.8 396.5,497.8 410.3,497.8 424.1,497.8 437.9,497.8 
					451.7,497.8 465.5,497.8 				"/>
				<polyline class="st3" points="65.5,484 79.3,484 93.1,484 106.9,484 120.7,484 134.5,484 148.3,484 162.1,484 175.8,484 
					189.6,484 203.4,484 217.2,484 231,484 244.8,484 258.6,484 272.4,484 286.2,484 300,484 313.8,484 327.6,484 341.4,484 
					355.2,484 369,484 382.7,484 396.5,484 410.3,484 424.1,484 437.9,484 451.7,484 465.5,484 				"/>
				<polyline class="st3" points="65.5,470.2 79.3,470.2 93.1,470.2 106.9,470.2 120.7,470.2 134.5,470.2 148.3,470.2 162.1,470.2 
					175.8,470.2 189.6,470.2 203.4,470.2 217.2,470.2 231,470.2 244.8,470.2 258.6,470.2 272.4,470.2 286.2,470.2 300,470.2 
					313.8,470.2 327.6,470.2 341.4,470.2 355.2,470.2 369,470.2 382.7,470.2 396.5,470.2 410.3,470.2 424.1,470.2 437.9,470.2 
					451.7,470.2 465.5,470.2 				"/>
				<polyline class="st3" points="65.5,456.4 79.3,456.4 93.1,456.4 106.9,456.4 120.7,456.4 134.5,456.4 148.3,456.4 162.1,456.4 
					175.8,456.4 189.6,456.4 203.4,456.4 217.2,456.4 231,456.4 244.8,456.4 258.6,456.4 272.4,456.4 286.2,456.4 300,456.4 
					313.8,456.4 327.6,456.4 341.4,456.4 355.2,456.4 369,456.4 382.7,456.4 396.5,456.4 410.3,456.4 424.1,456.4 437.9,456.4 
					451.7,456.4 465.5,456.4 				"/>
				<polyline class="st3" points="65.5,442.6 79.3,442.6 93.1,442.6 106.9,442.6 120.7,442.6 134.5,442.6 148.3,442.6 162.1,442.6 
					175.8,442.6 189.6,442.6 203.4,442.6 217.2,442.6 231,442.6 244.8,442.6 258.6,442.6 272.4,442.6 286.2,442.6 300,442.6 
					313.8,442.6 327.6,442.6 341.4,442.6 355.2,442.6 369,442.6 382.7,442.6 396.5,442.6 410.3,442.6 424.1,442.6 437.9,442.6 
					451.7,442.6 465.5,442.6 				"/>
				<polyline class="st3" points="65.5,428.8 79.3,428.8 93.1,428.8 106.9,428.8 120.7,428.8 134.5,428.8 148.3,428.8 162.1,428.8 
					175.8,428.8 189.6,428.8 203.4,428.8 217.2,428.8 231,428.8 244.8,428.8 258.6,428.8 272.4,428.8 286.2,428.8 300,428.8 
					313.8,428.8 327.6,428.8 341.4,428.8 355.2,428.8 369,428.8 382.7,428.8 396.5,428.8 410.3,428.8 424.1,428.8 437.9,428.8 
					451.7,428.8 465.5,428.8 				"/>
				<polyline class="st3" points="65.5,415 79.3,415 93.1,415 106.9,415 120.7,415 134.5,415 148.3,415 162.1,415 175.8,415 
					189.6,415 203.4,415 217.2,415 231,415 244.8,415 258.6,415 272.4,415 286.2,415 300,415 313.8,415 327.6,415 341.4,415 
					355.2,415 369,415 382.7,415 396.5,415 410.3,415 424.1,415 437.9,415 451.7,415 465.5,415 				"/>
				<polyline class="st3" points="65.5,401.3 79.3,401.3 93.1,401.3 106.9,401.3 120.7,401.3 134.5,401.3 148.3,401.3 162.1,401.3 
					175.8,401.3 189.6,401.3 203.4,401.3 217.2,401.3 231,401.3 244.8,401.3 258.6,401.3 272.4,401.3 286.2,401.3 300,401.3 
					313.8,401.3 327.6,401.3 341.4,401.3 355.2,401.3 369,401.3 382.7,401.3 396.5,401.3 410.3,401.3 424.1,401.3 437.9,401.3 
					451.7,401.3 465.5,401.3 				"/>
				<polyline class="st3" points="65.5,387.5 79.3,387.5 93.1,387.5 106.9,387.5 120.7,387.5 134.5,387.5 148.3,387.5 162.1,387.5 
					175.8,387.5 189.6,387.5 203.4,387.5 217.2,387.5 231,387.5 244.8,387.5 258.6,387.5 272.4,387.5 286.2,387.5 300,387.5 
					313.8,387.5 327.6,387.5 341.4,387.5 355.2,387.5 369,387.5 382.7,387.5 396.5,387.5 410.3,387.5 424.1,387.5 437.9,387.5 
					451.7,387.5 465.5,387.5 				"/>
				<polyline class="st3" points="65.5,373.7 79.3,373.7 93.1,373.7 106.9,373.7 120.7,373.7 134.5,373.7 148.3,373.7 162.1,373.7 
					175.8,373.7 189.6,373.7 203.4,373.7 217.2,373.7 231,373.7 244.8,373.7 258.6,373.7 272.4,373.7 286.2,373.7 300,373.7 
					313.8,373.7 327.6,373.7 341.4,373.7 355.2,373.7 369,373.7 382.7,373.7 396.5,373.7 410.3,373.7 424.1,373.7 437.9,373.7 
					451.7,373.7 465.5,373.7 				"/>
				<polyline class="st3" points="65.5,359.9 79.3,359.9 93.1,359.9 106.9,359.9 120.7,359.9 134.5,359.9 148.3,359.9 162.1,359.9 
					175.8,359.9 189.6,359.9 203.4,359.9 217.2,359.9 231,359.9 244.8,359.9 258.6,359.9 272.4,359.9 286.2,359.9 300,359.9 
					313.8,359.9 327.6,359.9 341.4,359.9 355.2,359.9 369,359.9 382.7,359.9 396.5,359.9 410.3,359.9 424.1,359.9 437.9,359.9 
					451.7,359.9 465.5,359.9 				"/>
				<polyline class="st3" points="65.5,346.1 79.3,346.1 93.1,346.1 106.9,346.1 120.7,346.1 134.5,346.1 148.3,346.1 162.1,346.1 
					175.8,346.1 189.6,346.1 203.4,346.1 217.2,346.1 231,346.1 244.8,346.1 258.6,346.1 272.4,346.1 286.2,346.1 300,346.1 
					313.8,346.1 327.6,346.1 341.4,346.1 355.2,346.1 369,346.1 382.7,346.1 396.5,346.1 410.3,346.1 424.1,346.1 437.9,346.1 
					451.7,346.1 465.5,346.1 				"/>
				<polyline class="st3" points="65.5,332.3 79.3,332.3 93.1,332.3 106.9,332.3 120.7,332.3 134.5,332.3 148.3,332.3 162.1,332.3 
					175.8,332.3 189.6,332.3 203.4,332.3 217.2,332.3 231,332.3 244.8,332.3 258.6,332.3 272.4,332.3 286.2,332.3 300,332.3 
					313.8,332.3 327.6,332.3 341.4,332.3 355.2,332.3 369,332.3 382.7,332.3 396.5,332.3 410.3,332.3 424.1,332.3 437.9,332.3 
					451.7,332.3 465.5,332.3 				"/>
				<polyline class="st3" points="451.7,318.5 451.7,332.3 451.7,346.1 451.7,359.9 451.7,373.7 451.7,387.5 451.7,401.3 451.7,415 
					451.7,428.8 451.7,442.6 451.7,456.4 451.7,470.2 451.7,484 451.7,497.8 451.7,511.6 451.7,525.4 451.7,539.2 451.7,553 
					451.7,566.8 451.7,580.6 451.7,594.4 451.7,608.2 451.7,622 451.7,635.7 451.7,649.5 451.7,663.3 451.7,677.1 451.7,690.9 
					451.7,704.7 451.7,718.5 				"/>
				<polyline class="st3" points="437.9,318.5 437.9,332.3 437.9,346.1 437.9,359.9 437.9,373.7 437.9,387.5 437.9,401.3 437.9,415 
					437.9,428.8 437.9,442.6 437.9,456.4 437.9,470.2 437.9,484 437.9,497.8 437.9,511.6 437.9,525.4 437.9,539.2 437.9,553 
					437.9,566.8 437.9,580.6 437.9,594.4 437.9,608.2 437.9,622 437.9,635.7 437.9,649.5 437.9,663.3 437.9,677.1 437.9,690.9 
					437.9,704.7 437.9,718.5 				"/>
				<polyline class="st3" points="424.1,318.5 424.1,332.3 424.1,346.1 424.1,359.9 424.1,373.7 424.1,387.5 424.1,401.3 424.1,415 
					424.1,428.8 424.1,442.6 424.1,456.4 424.1,470.2 424.1,484 424.1,497.8 424.1,511.6 424.1,525.4 424.1,539.2 424.1,553 
					424.1,566.8 424.1,580.6 424.1,594.4 424.1,608.2 424.1,622 424.1,635.7 424.1,649.5 424.1,663.3 424.1,677.1 424.1,690.9 
					424.1,704.7 424.1,718.5 				"/>
				<polyline class="st3" points="410.3,318.5 410.3,332.3 410.3,346.1 410.3,359.9 410.3,373.7 410.3,387.5 410.3,401.3 410.3,415 
					410.3,428.8 410.3,442.6 410.3,456.4 410.3,470.2 410.3,484 410.3,497.8 410.3,511.6 410.3,525.4 410.3,539.2 410.3,553 
					410.3,566.8 410.3,580.6 410.3,594.4 410.3,608.2 410.3,622 410.3,635.7 410.3,649.5 410.3,663.3 410.3,677.1 410.3,690.9 
					410.3,704.7 410.3,718.5 				"/>
				<polyline class="st3" points="396.5,318.5 396.5,332.3 396.5,346.1 396.5,359.9 396.5,373.7 396.5,387.5 396.5,401.3 396.5,415 
					396.5,428.8 396.5,442.6 396.5,456.4 396.5,470.2 396.5,484 396.5,497.8 396.5,511.6 396.5,525.4 396.5,539.2 396.5,553 
					396.5,566.8 396.5,580.6 396.5,594.4 396.5,608.2 396.5,622 396.5,635.7 396.5,649.5 396.5,663.3 396.5,677.1 396.5,690.9 
					396.5,704.7 396.5,718.5 				"/>
				<polyline class="st3" points="382.7,318.5 382.7,332.3 382.7,346.1 382.7,359.9 382.7,373.7 382.7,387.5 382.7,401.3 382.7,415 
					382.7,428.8 382.7,442.6 382.7,456.4 382.7,470.2 382.7,484 382.7,497.8 382.7,511.6 382.7,525.4 382.7,539.2 382.7,553 
					382.7,566.8 382.7,580.6 382.7,594.4 382.7,608.2 382.7,622 382.7,635.7 382.7,649.5 382.7,663.3 382.7,677.1 382.7,690.9 
					382.7,704.7 382.7,718.5 				"/>
				<polyline class="st3" points="369,318.5 369,332.3 369,346.1 369,359.9 369,373.7 369,387.5 369,401.3 369,415 369,428.8 
					369,442.6 369,456.4 369,470.2 369,484 369,497.8 369,511.6 369,525.4 369,539.2 369,553 369,566.8 369,580.6 369,594.4 
					369,608.2 369,622 369,635.7 369,649.5 369,663.3 369,677.1 369,690.9 369,704.7 369,718.5 				"/>
				<polyline class="st3" points="355.2,318.5 355.2,332.3 355.2,346.1 355.2,359.9 355.2,373.7 355.2,387.5 355.2,401.3 355.2,415 
					355.2,428.8 355.2,442.6 355.2,456.4 355.2,470.2 355.2,484 355.2,497.8 355.2,511.6 355.2,525.4 355.2,539.2 355.2,553 
					355.2,566.8 355.2,580.6 355.2,594.4 355.2,608.2 355.2,622 355.2,635.7 355.2,649.5 355.2,663.3 355.2,677.1 355.2,690.9 
					355.2,704.7 355.2,718.5 				"/>
				<polyline class="st3" points="341.4,318.5 341.4,332.3 341.4,346.1 341.4,359.9 341.4,373.7 341.4,387.5 341.4,401.3 341.4,415 
					341.4,428.8 341.4,442.6 341.4,456.4 341.4,470.2 341.4,484 341.4,497.8 341.4,511.6 341.4,525.4 341.4,539.2 341.4,553 
					341.4,566.8 341.4,580.6 341.4,594.4 341.4,608.2 341.4,622 341.4,635.7 341.4,649.5 341.4,663.3 341.4,677.1 341.4,690.9 
					341.4,704.7 341.4,718.5 				"/>
				<polyline class="st3" points="327.6,318.5 327.6,332.3 327.6,346.1 327.6,359.9 327.6,373.7 327.6,387.5 327.6,401.3 327.6,415 
					327.6,428.8 327.6,442.6 327.6,456.4 327.6,470.2 327.6,484 327.6,497.8 327.6,511.6 327.6,525.4 327.6,539.2 327.6,553 
					327.6,566.8 327.6,580.6 327.6,594.4 327.6,608.2 327.6,622 327.6,635.7 327.6,649.5 327.6,663.3 327.6,677.1 327.6,690.9 
					327.6,704.7 327.6,718.5 				"/>
				<polyline class="st3" points="313.8,318.5 313.8,332.3 313.8,346.1 313.8,359.9 313.8,373.7 313.8,387.5 313.8,401.3 313.8,415 
					313.8,428.8 313.8,442.6 313.8,456.4 313.8,470.2 313.8,484 313.8,497.8 313.8,511.6 313.8,525.4 313.8,539.2 313.8,553 
					313.8,566.8 313.8,580.6 313.8,594.4 313.8,608.2 313.8,622 313.8,635.7 313.8,649.5 313.8,663.3 313.8,677.1 313.8,690.9 
					313.8,704.7 313.8,718.5 				"/>
				<polyline class="st3" points="300,318.5 300,332.3 300,346.1 300,359.9 300,373.7 300,387.5 300,401.3 300,415 300,428.8 
					300,442.6 300,456.4 300,470.2 300,484 300,497.8 300,511.6 300,525.4 300,539.2 300,553 300,566.8 300,580.6 300,594.4 
					300,608.2 300,622 300,635.7 300,649.5 300,663.3 300,677.1 300,690.9 300,704.7 300,718.5 				"/>
				<polyline class="st3" points="286.2,318.5 286.2,332.3 286.2,346.1 286.2,359.9 286.2,373.7 286.2,387.5 286.2,401.3 286.2,415 
					286.2,428.8 286.2,442.6 286.2,456.4 286.2,470.2 286.2,484 286.2,497.8 286.2,511.6 286.2,525.4 286.2,539.2 286.2,553 
					286.2,566.8 286.2,580.6 286.2,594.4 286.2,608.2 286.2,622 286.2,635.7 286.2,649.5 286.2,663.3 286.2,677.1 286.2,690.9 
					286.2,704.7 286.2,718.5 				"/>
				<polyline class="st3" points="272.4,318.5 272.4,332.3 272.4,346.1 272.4,359.9 272.4,373.7 272.4,387.5 272.4,401.3 272.4,415 
					272.4,428.8 272.4,442.6 272.4,456.4 272.4,470.2 272.4,484 272.4,497.8 272.4,511.6 272.4,525.4 272.4,539.2 272.4,553 
					272.4,566.8 272.4,580.6 272.4,594.4 272.4,608.2 272.4,622 272.4,635.7 272.4,649.5 272.4,663.3 272.4,677.1 272.4,690.9 
					272.4,704.7 272.4,718.5 				"/>
				<polyline class="st3" points="258.6,318.5 258.6,332.3 258.6,346.1 258.6,359.9 258.6,373.7 258.6,387.5 258.6,401.3 258.6,415 
					258.6,428.8 258.6,442.6 258.6,456.4 258.6,470.2 258.6,484 258.6,497.8 258.6,511.6 258.6,525.4 258.6,539.2 258.6,553 
					258.6,566.8 258.6,580.6 258.6,594.4 258.6,608.2 258.6,622 258.6,635.7 258.6,649.5 258.6,663.3 258.6,677.1 258.6,690.9 
					258.6,704.7 258.6,718.5 				"/>
				<polyline class="st3" points="244.8,318.5 244.8,332.3 244.8,346.1 244.8,359.9 244.8,373.7 244.8,387.5 244.8,401.3 244.8,415 
					244.8,428.8 244.8,442.6 244.8,456.4 244.8,470.2 244.8,484 244.8,497.8 244.8,511.6 244.8,525.4 244.8,539.2 244.8,553 
					244.8,566.8 244.8,580.6 244.8,594.4 244.8,608.2 244.8,622 244.8,635.7 244.8,649.5 244.8,663.3 244.8,677.1 244.8,690.9 
					244.8,704.7 244.8,718.5 				"/>
				<polyline class="st3" points="231,318.5 231,332.3 231,346.1 231,359.9 231,373.7 231,387.5 231,401.3 231,415 231,428.8 
					231,442.6 231,456.4 231,470.2 231,484 231,497.8 231,511.6 231,525.4 231,539.2 231,553 231,566.8 231,580.6 231,594.4 
					231,608.2 231,622 231,635.7 231,649.5 231,663.3 231,677.1 231,690.9 231,704.7 231,718.5 				"/>
				<polyline class="st3" points="217.2,318.5 217.2,332.3 217.2,346.1 217.2,359.9 217.2,373.7 217.2,387.5 217.2,401.3 217.2,415 
					217.2,428.8 217.2,442.6 217.2,456.4 217.2,470.2 217.2,484 217.2,497.8 217.2,511.6 217.2,525.4 217.2,539.2 217.2,553 
					217.2,566.8 217.2,580.6 217.2,594.4 217.2,608.2 217.2,622 217.2,635.7 217.2,649.5 217.2,663.3 217.2,677.1 217.2,690.9 
					217.2,704.7 217.2,718.5 				"/>
				<polyline class="st3" points="203.4,318.5 203.4,332.3 203.4,346.1 203.4,359.9 203.4,373.7 203.4,387.5 203.4,401.3 203.4,415 
					203.4,428.8 203.4,442.6 203.4,456.4 203.4,470.2 203.4,484 203.4,497.8 203.4,511.6 203.4,525.4 203.4,539.2 203.4,553 
					203.4,566.8 203.4,580.6 203.4,594.4 203.4,608.2 203.4,622 203.4,635.7 203.4,649.5 203.4,663.3 203.4,677.1 203.4,690.9 
					203.4,704.7 203.4,718.5 				"/>
				<polyline class="st3" points="189.6,318.5 189.6,332.3 189.6,346.1 189.6,359.9 189.6,373.7 189.6,387.5 189.6,401.3 189.6,415 
					189.6,428.8 189.6,442.6 189.6,456.4 189.6,470.2 189.6,484 189.6,497.8 189.6,511.6 189.6,525.4 189.6,539.2 189.6,553 
					189.6,566.8 189.6,580.6 189.6,594.4 189.6,608.2 189.6,622 189.6,635.7 189.6,649.5 189.6,663.3 189.6,677.1 189.6,690.9 
					189.6,704.7 189.6,718.5 				"/>
				<polyline class="st3" points="175.8,318.5 175.8,332.3 175.8,346.1 175.8,359.9 175.8,373.7 175.8,387.5 175.8,401.3 175.8,415 
					175.8,428.8 175.8,442.6 175.8,456.4 175.8,470.2 175.8,484 175.8,497.8 175.8,511.6 175.8,525.4 175.8,539.2 175.8,553 
					175.8,566.8 175.8,580.6 175.8,594.4 175.8,608.2 175.8,622 175.8,635.7 175.8,649.5 175.8,663.3 175.8,677.1 175.8,690.9 
					175.8,704.7 175.8,718.5 				"/>
				<polyline class="st3" points="162.1,318.5 162.1,332.3 162.1,346.1 162.1,359.9 162.1,373.7 162.1,387.5 162.1,401.3 162.1,415 
					162.1,428.8 162.1,442.6 162.1,456.4 162.1,470.2 162.1,484 162.1,497.8 162.1,511.6 162.1,525.4 162.1,539.2 162.1,553 
					162.1,566.8 162.1,580.6 162.1,594.4 162.1,608.2 162.1,622 162.1,635.7 162.1,649.5 162.1,663.3 162.1,677.1 162.1,690.9 
					162.1,704.7 162.1,718.5 				"/>
				<polyline class="st3" points="148.3,318.5 148.3,332.3 148.3,346.1 148.3,359.9 148.3,373.7 148.3,387.5 148.3,401.3 148.3,415 
					148.3,428.8 148.3,442.6 148.3,456.4 148.3,470.2 148.3,484 148.3,497.8 148.3,511.6 148.3,525.4 148.3,539.2 148.3,553 
					148.3,566.8 148.3,580.6 148.3,594.4 148.3,608.2 148.3,622 148.3,635.7 148.3,649.5 148.3,663.3 148.3,677.1 148.3,690.9 
					148.3,704.7 148.3,718.5 				"/>
				<polyline class="st3" points="134.5,318.5 134.5,332.3 134.5,346.1 134.5,359.9 134.5,373.7 134.5,387.5 134.5,401.3 134.5,415 
					134.5,428.8 134.5,442.6 134.5,456.4 134.5,470.2 134.5,484 134.5,497.8 134.5,511.6 134.5,525.4 134.5,539.2 134.5,553 
					134.5,566.8 134.5,580.6 134.5,594.4 134.5,608.2 134.5,622 134.5,635.7 134.5,649.5 134.5,663.3 134.5,677.1 134.5,690.9 
					134.5,704.7 134.5,718.5 				"/>
				<polyline class="st3" points="120.7,318.5 120.7,332.3 120.7,346.1 120.7,359.9 120.7,373.7 120.7,387.5 120.7,401.3 120.7,415 
					120.7,428.8 120.7,442.6 120.7,456.4 120.7,470.2 120.7,484 120.7,497.8 120.7,511.6 120.7,525.4 120.7,539.2 120.7,553 
					120.7,566.8 120.7,580.6 120.7,594.4 120.7,608.2 120.7,622 120.7,635.7 120.7,649.5 120.7,663.3 120.7,677.1 120.7,690.9 
					120.7,704.7 120.7,718.5 				"/>
				<polyline class="st3" points="106.9,318.5 106.9,332.3 106.9,346.1 106.9,359.9 106.9,373.7 106.9,387.5 106.9,401.3 106.9,415 
					106.9,428.8 106.9,442.6 106.9,456.4 106.9,470.2 106.9,484 106.9,497.8 106.9,511.6 106.9,525.4 106.9,539.2 106.9,553 
					106.9,566.8 106.9,580.6 106.9,594.4 106.9,608.2 106.9,622 106.9,635.7 106.9,649.5 106.9,663.3 106.9,677.1 106.9,690.9 
					106.9,704.7 106.9,718.5 				"/>
				<polyline class="st3" points="93.1,318.5 93.1,332.3 93.1,346.1 93.1,359.9 93.1,373.7 93.1,387.5 93.1,401.3 93.1,415 
					93.1,428.8 93.1,442.6 93.1,456.4 93.1,470.2 93.1,484 93.1,497.8 93.1,511.6 93.1,525.4 93.1,539.2 93.1,553 93.1,566.8 
					93.1,580.6 93.1,594.4 93.1,608.2 93.1,622 93.1,635.7 93.1,649.5 93.1,663.3 93.1,677.1 93.1,690.9 93.1,704.7 93.1,718.5 				
					"/>
				<polyline class="st3" points="79.3,318.5 79.3,332.3 79.3,346.1 79.3,359.9 79.3,373.7 79.3,387.5 79.3,401.3 79.3,415 
					79.3,428.8 79.3,442.6 79.3,456.4 79.3,470.2 79.3,484 79.3,497.8 79.3,511.6 79.3,525.4 79.3,539.2 79.3,553 79.3,566.8 
					79.3,580.6 79.3,594.4 79.3,608.2 79.3,622 79.3,635.7 79.3,649.5 79.3,663.3 79.3,677.1 79.3,690.9 79.3,704.7 79.3,718.5 				
					"/>
			</g>
		</g>
	</g>
	<text transform="matrix(1 0 0 1 446.0952 737.5879)" class="st5 st6">{</text>
</g>
<g id="Layer_3">
	<text transform="matrix(1 0 0 1 134 677.2539)" class="st0 st7 st8">8</text>
	<text transform="matrix(1 0 0 1 1203.6 132.6665)" class="st9 st10">0</text>
	<text transform="matrix(1 0 0 1 1203.6 225.6665)" class="st9 st10">1</text>
	<text transform="matrix(1 0 0 1 1203.6 313.3335)" class="st9 st10">2</text>
	<text transform="matrix(1 0 0 1 1203.6 395)" class="st9 st10">3</text>
	<text transform="matrix(1 0 0 1 1203.6 483)" class="st9 st10">4</text>
	<text transform="matrix(1 0 0 1 1203.6 569.333)" class="st9 st10">5</text>
	<text transform="matrix(1 0 0 1 1203.6 654.667)" class="st9 st10">6</text>
	<text transform="matrix(1 0 0 1 1203.6 740.667)" class="st9 st10">7</text>
	<text transform="matrix(1 0 0 1 1203.6 827)" class="st9 st10">8</text>
	<text transform="matrix(1 0 0 1 1203.6 914)" class="st9 st10">9</text>
</g>
</svg>
